<?xml version="1.0" encoding="UTF-8" standalone="no"?>
<!DOCTYPE svg PUBLIC "-//W3C//DTD SVG 1.1//EN"
 "http://www.w3.org/Graphics/SVG/1.1/DTD/svg11.dtd">
<!-- Generated by graphviz version 2.47.0 (20210316.0004)
 -->
<!-- Title: dbml Pages: 1 -->
<svg width="1543pt" height="4266pt"
 viewBox="0.00 0.00 1543.07 4266.33" xmlns="http://www.w3.org/2000/svg" xmlns:xlink="http://www.w3.org/1999/xlink">
<g id="graph0" class="graph" transform="scale(1 1) rotate(0) translate(4 4262.33)">
<title>dbml</title>
<!-- article -->
<g id="article" class="node">
<title>article</title>
<ellipse fill="none" stroke="black" stroke-width="0" cx="468.1" cy="-299.81" rx="308.1" ry="299.63"/>
<polygon fill="#1d71b8" stroke="transparent" points="252.1,-449.81 252.1,-509.81 684.1,-509.81 684.1,-449.81 252.1,-449.81"/>
<polygon fill="none" stroke="#29235c" points="252.1,-449.81 252.1,-509.81 684.1,-509.81 684.1,-449.81 252.1,-449.81"/>
<text text-anchor="start" x="363.19" y="-471.01" font-family="Helvetica,sans-Serif" font-weight="bold" font-size="32.00" fill="#ffffff"> &#160;&#160;&#160;&#160;&#160;&#160;article &#160;&#160;&#160;&#160;&#160;&#160;</text>
<polygon fill="#e7e2dd" stroke="transparent" points="252.1,-389.81 252.1,-449.81 684.1,-449.81 684.1,-389.81 252.1,-389.81"/>
<polygon fill="none" stroke="#29235c" points="252.1,-389.81 252.1,-449.81 684.1,-449.81 684.1,-389.81 252.1,-389.81"/>
<text text-anchor="start" x="263.1" y="-411.01" font-family="Helvetica,sans-Serif" font-weight="bold" font-size="32.00" fill="#29235c">id</text>
<text text-anchor="start" x="287.99" y="-411.01" font-family="Helvetica,sans-Serif" font-size="32.00" fill="#29235c"> &#160;&#160;&#160;</text>
<text text-anchor="start" x="557.55" y="-411.01" font-family="Helvetica,sans-Serif" font-style="italic" font-size="32.00" fill="#29235c">bigint</text>
<text text-anchor="start" x="634.01" y="-411.01" font-family="Helvetica,sans-Serif" font-size="32.00" fill="#29235c"> </text>
<text text-anchor="start" x="642.91" y="-411.01" font-family="Helvetica,sans-Serif" font-weight="bold" font-size="32.00" fill="#29235c">(!)</text>
<polygon fill="#e7e2dd" stroke="transparent" points="252.1,-329.81 252.1,-389.81 684.1,-389.81 684.1,-329.81 252.1,-329.81"/>
<polygon fill="none" stroke="#29235c" points="252.1,-329.81 252.1,-389.81 684.1,-389.81 684.1,-329.81 252.1,-329.81"/>
<text text-anchor="start" x="263.1" y="-350.01" font-family="Helvetica,sans-Serif" font-size="32.00" fill="#29235c">title &#160;&#160;&#160;</text>
<text text-anchor="start" x="452.67" y="-351.01" font-family="Helvetica,sans-Serif" font-style="italic" font-size="32.00" fill="#29235c">varchar(255)</text>
<text text-anchor="start" x="634.01" y="-351.01" font-family="Helvetica,sans-Serif" font-size="32.00" fill="#29235c"> </text>
<text text-anchor="start" x="642.91" y="-351.01" font-family="Helvetica,sans-Serif" font-weight="bold" font-size="32.00" fill="#29235c">(!)</text>
<polygon fill="#e7e2dd" stroke="transparent" points="252.1,-269.81 252.1,-329.81 684.1,-329.81 684.1,-269.81 252.1,-269.81"/>
<polygon fill="none" stroke="#29235c" points="252.1,-269.81 252.1,-329.81 684.1,-329.81 684.1,-269.81 252.1,-269.81"/>
<text text-anchor="start" x="263.1" y="-290.01" font-family="Helvetica,sans-Serif" font-size="32.00" fill="#29235c">subtitle &#160;&#160;&#160;</text>
<text text-anchor="start" x="452.67" y="-291.01" font-family="Helvetica,sans-Serif" font-style="italic" font-size="32.00" fill="#29235c">varchar(255)</text>
<text text-anchor="start" x="634.01" y="-291.01" font-family="Helvetica,sans-Serif" font-size="32.00" fill="#29235c"> </text>
<text text-anchor="start" x="642.91" y="-291.01" font-family="Helvetica,sans-Serif" font-weight="bold" font-size="32.00" fill="#29235c">(!)</text>
<polygon fill="#e7e2dd" stroke="transparent" points="252.1,-209.81 252.1,-269.81 684.1,-269.81 684.1,-209.81 252.1,-209.81"/>
<polygon fill="none" stroke="#29235c" points="252.1,-209.81 252.1,-269.81 684.1,-269.81 684.1,-209.81 252.1,-209.81"/>
<text text-anchor="start" x="263.1" y="-230.01" font-family="Helvetica,sans-Serif" font-size="32.00" fill="#29235c">article_url &#160;&#160;&#160;</text>
<text text-anchor="start" x="452.67" y="-231.01" font-family="Helvetica,sans-Serif" font-style="italic" font-size="32.00" fill="#29235c">varchar(511)</text>
<text text-anchor="start" x="634.01" y="-231.01" font-family="Helvetica,sans-Serif" font-size="32.00" fill="#29235c"> </text>
<text text-anchor="start" x="642.91" y="-231.01" font-family="Helvetica,sans-Serif" font-weight="bold" font-size="32.00" fill="#29235c">(!)</text>
<polygon fill="#e7e2dd" stroke="transparent" points="252.1,-149.81 252.1,-209.81 684.1,-209.81 684.1,-149.81 252.1,-149.81"/>
<polygon fill="none" stroke="#29235c" points="252.1,-149.81 252.1,-209.81 684.1,-209.81 684.1,-149.81 252.1,-149.81"/>
<text text-anchor="start" x="262.97" y="-170.01" font-family="Helvetica,sans-Serif" font-size="32.00" fill="#29235c">image_key &#160;&#160;&#160;</text>
<text text-anchor="start" x="452.89" y="-171.01" font-family="Helvetica,sans-Serif" font-style="italic" font-size="32.00" fill="#29235c">varchar(511)</text>
<text text-anchor="start" x="634.23" y="-171.01" font-family="Helvetica,sans-Serif" font-size="32.00" fill="#29235c"> </text>
<text text-anchor="start" x="643.12" y="-171.01" font-family="Helvetica,sans-Serif" font-weight="bold" font-size="32.00" fill="#29235c">(!)</text>
<polygon fill="#e7e2dd" stroke="transparent" points="252.1,-89.81 252.1,-149.81 684.1,-149.81 684.1,-89.81 252.1,-89.81"/>
<polygon fill="none" stroke="#29235c" points="252.1,-89.81 252.1,-149.81 684.1,-149.81 684.1,-89.81 252.1,-89.81"/>
<text text-anchor="start" x="263.1" y="-110.01" font-family="Helvetica,sans-Serif" font-size="32.00" fill="#29235c">created_at &#160;&#160;&#160;</text>
<text text-anchor="start" x="486.46" y="-111.01" font-family="Helvetica,sans-Serif" font-style="italic" font-size="32.00" fill="#29235c">timestamp</text>
<text text-anchor="start" x="634.01" y="-111.01" font-family="Helvetica,sans-Serif" font-size="32.00" fill="#29235c"> </text>
<text text-anchor="start" x="642.91" y="-111.01" font-family="Helvetica,sans-Serif" font-weight="bold" font-size="32.00" fill="#29235c">(!)</text>
<polygon fill="none" stroke="#29235c" stroke-width="2" points="251.1,-88.81 251.1,-510.81 685.1,-510.81 685.1,-88.81 251.1,-88.81"/>
</g>
<!-- cheer -->
<g id="cheer" class="node">
<title>cheer</title>
<ellipse fill="none" stroke="black" stroke-width="0" cx="1253.64" cy="-1685.81" rx="281.36" ry="342.48"/>
<polygon fill="#1d71b8" stroke="transparent" points="1056.64,-1865.81 1056.64,-1925.81 1450.64,-1925.81 1450.64,-1865.81 1056.64,-1865.81"/>
<polygon fill="none" stroke="#29235c" points="1056.64,-1865.81 1056.64,-1925.81 1450.64,-1925.81 1450.64,-1865.81 1056.64,-1865.81"/>
<text text-anchor="start" x="1151.38" y="-1887.01" font-family="Helvetica,sans-Serif" font-weight="bold" font-size="32.00" fill="#ffffff"> &#160;&#160;&#160;&#160;&#160;&#160;cheer &#160;&#160;&#160;&#160;&#160;&#160;</text>
<polygon fill="#e7e2dd" stroke="transparent" points="1056.64,-1805.81 1056.64,-1865.81 1450.64,-1865.81 1450.64,-1805.81 1056.64,-1805.81"/>
<polygon fill="none" stroke="#29235c" points="1056.64,-1805.81 1056.64,-1865.81 1450.64,-1865.81 1450.64,-1805.81 1056.64,-1805.81"/>
<text text-anchor="start" x="1067.64" y="-1827.01" font-family="Helvetica,sans-Serif" font-weight="bold" font-size="32.00" fill="#29235c">id</text>
<text text-anchor="start" x="1092.53" y="-1827.01" font-family="Helvetica,sans-Serif" font-size="32.00" fill="#29235c"> &#160;&#160;&#160;</text>
<text text-anchor="start" x="1324.09" y="-1827.01" font-family="Helvetica,sans-Serif" font-style="italic" font-size="32.00" fill="#29235c">bigint</text>
<text text-anchor="start" x="1400.55" y="-1827.01" font-family="Helvetica,sans-Serif" font-size="32.00" fill="#29235c"> </text>
<text text-anchor="start" x="1409.44" y="-1827.01" font-family="Helvetica,sans-Serif" font-weight="bold" font-size="32.00" fill="#29235c">(!)</text>
<polygon fill="#e7e2dd" stroke="transparent" points="1056.64,-1745.81 1056.64,-1805.81 1450.64,-1805.81 1450.64,-1745.81 1056.64,-1745.81"/>
<polygon fill="none" stroke="#29235c" points="1056.64,-1745.81 1056.64,-1805.81 1450.64,-1805.81 1450.64,-1745.81 1056.64,-1745.81"/>
<text text-anchor="start" x="1067.64" y="-1766.01" font-family="Helvetica,sans-Serif" font-size="32.00" fill="#29235c">member_id &#160;&#160;&#160;</text>
<text text-anchor="start" x="1324.09" y="-1767.01" font-family="Helvetica,sans-Serif" font-style="italic" font-size="32.00" fill="#29235c">bigint</text>
<text text-anchor="start" x="1400.55" y="-1767.01" font-family="Helvetica,sans-Serif" font-size="32.00" fill="#29235c"> </text>
<text text-anchor="start" x="1409.44" y="-1767.01" font-family="Helvetica,sans-Serif" font-weight="bold" font-size="32.00" fill="#29235c">(!)</text>
<polygon fill="#e7e2dd" stroke="transparent" points="1056.64,-1685.81 1056.64,-1745.81 1450.64,-1745.81 1450.64,-1685.81 1056.64,-1685.81"/>
<polygon fill="none" stroke="#29235c" points="1056.64,-1685.81 1056.64,-1745.81 1450.64,-1745.81 1450.64,-1685.81 1056.64,-1685.81"/>
<text text-anchor="start" x="1067.64" y="-1706.01" font-family="Helvetica,sans-Serif" font-size="32.00" fill="#29235c">store_id &#160;&#160;&#160;</text>
<text text-anchor="start" x="1324.09" y="-1707.01" font-family="Helvetica,sans-Serif" font-style="italic" font-size="32.00" fill="#29235c">bigint</text>
<text text-anchor="start" x="1400.55" y="-1707.01" font-family="Helvetica,sans-Serif" font-size="32.00" fill="#29235c"> </text>
<text text-anchor="start" x="1409.44" y="-1707.01" font-family="Helvetica,sans-Serif" font-weight="bold" font-size="32.00" fill="#29235c">(!)</text>
<polygon fill="#e7e2dd" stroke="transparent" points="1056.64,-1625.81 1056.64,-1685.81 1450.64,-1685.81 1450.64,-1625.81 1056.64,-1625.81"/>
<polygon fill="none" stroke="#29235c" points="1056.64,-1625.81 1056.64,-1685.81 1450.64,-1685.81 1450.64,-1625.81 1056.64,-1625.81"/>
<text text-anchor="start" x="1067.64" y="-1646.01" font-family="Helvetica,sans-Serif" font-size="32.00" fill="#29235c">description &#160;&#160;&#160;</text>
<text text-anchor="start" x="1348.97" y="-1647.01" font-family="Helvetica,sans-Serif" font-style="italic" font-size="32.00" fill="#29235c">text</text>
<text text-anchor="start" x="1400.55" y="-1647.01" font-family="Helvetica,sans-Serif" font-size="32.00" fill="#29235c"> </text>
<text text-anchor="start" x="1409.44" y="-1647.01" font-family="Helvetica,sans-Serif" font-weight="bold" font-size="32.00" fill="#29235c">(!)</text>
<polygon fill="#e7e2dd" stroke="transparent" points="1056.64,-1565.81 1056.64,-1625.81 1450.64,-1625.81 1450.64,-1565.81 1056.64,-1565.81"/>
<polygon fill="none" stroke="#29235c" points="1056.64,-1565.81 1056.64,-1625.81 1450.64,-1625.81 1450.64,-1565.81 1056.64,-1565.81"/>
<text text-anchor="start" x="1067.64" y="-1586.01" font-family="Helvetica,sans-Serif" font-size="32.00" fill="#29235c">image_key &#160;&#160;&#160;</text>
<text text-anchor="start" x="1258.47" y="-1587.01" font-family="Helvetica,sans-Serif" font-style="italic" font-size="32.00" fill="#29235c">varchar(511)</text>
<polygon fill="#e7e2dd" stroke="transparent" points="1056.64,-1505.81 1056.64,-1565.81 1450.64,-1565.81 1450.64,-1505.81 1056.64,-1505.81"/>
<polygon fill="none" stroke="#29235c" points="1056.64,-1505.81 1056.64,-1565.81 1450.64,-1565.81 1450.64,-1505.81 1056.64,-1505.81"/>
<text text-anchor="start" x="1067.64" y="-1526.01" font-family="Helvetica,sans-Serif" font-size="32.00" fill="#29235c">is_admin &#160;&#160;&#160;</text>
<text text-anchor="start" x="1277.89" y="-1527.01" font-family="Helvetica,sans-Serif" font-style="italic" font-size="32.00" fill="#29235c">tinyint(1)</text>
<text text-anchor="start" x="1400.55" y="-1527.01" font-family="Helvetica,sans-Serif" font-size="32.00" fill="#29235c"> </text>
<text text-anchor="start" x="1409.44" y="-1527.01" font-family="Helvetica,sans-Serif" font-weight="bold" font-size="32.00" fill="#29235c">(!)</text>
<polygon fill="#e7e2dd" stroke="transparent" points="1056.64,-1445.81 1056.64,-1505.81 1450.64,-1505.81 1450.64,-1445.81 1056.64,-1445.81"/>
<polygon fill="none" stroke="#29235c" points="1056.64,-1445.81 1056.64,-1505.81 1450.64,-1505.81 1450.64,-1445.81 1056.64,-1445.81"/>
<text text-anchor="start" x="1067.27" y="-1466.01" font-family="Helvetica,sans-Serif" font-size="32.00" fill="#29235c">created_at &#160;&#160;&#160;</text>
<text text-anchor="start" x="1253.31" y="-1467.01" font-family="Helvetica,sans-Serif" font-style="italic" font-size="32.00" fill="#29235c">timestamp</text>
<text text-anchor="start" x="1400.87" y="-1467.01" font-family="Helvetica,sans-Serif" font-size="32.00" fill="#29235c"> </text>
<text text-anchor="start" x="1409.76" y="-1467.01" font-family="Helvetica,sans-Serif" font-weight="bold" font-size="32.00" fill="#29235c">(!)</text>
<polygon fill="none" stroke="#29235c" stroke-width="2" points="1055.64,-1444.81 1055.64,-1926.81 1451.64,-1926.81 1451.64,-1444.81 1055.64,-1444.81"/>
</g>
<!-- flyway_schema_history -->
<g id="flyway_schema_history" class="node">
<title>flyway_schema_history</title>
<ellipse fill="none" stroke="black" stroke-width="0" cx="468.1" cy="-2831.81" rx="340.24" ry="469.54"/>
<polygon fill="#1d71b8" stroke="transparent" points="230.1,-3101.81 230.1,-3161.81 707.1,-3161.81 707.1,-3101.81 230.1,-3101.81"/>
<polygon fill="none" stroke="#29235c" points="230.1,-3101.81 230.1,-3161.81 707.1,-3161.81 707.1,-3101.81 230.1,-3101.81"/>
<text text-anchor="start" x="241" y="-3123.01" font-family="Helvetica,sans-Serif" font-weight="bold" font-size="32.00" fill="#ffffff"> &#160;&#160;&#160;&#160;&#160;&#160;flyway_schema_history &#160;&#160;&#160;&#160;&#160;&#160;</text>
<polygon fill="#e7e2dd" stroke="transparent" points="230.1,-3041.81 230.1,-3101.81 707.1,-3101.81 707.1,-3041.81 230.1,-3041.81"/>
<polygon fill="none" stroke="#29235c" points="230.1,-3041.81 230.1,-3101.81 707.1,-3101.81 707.1,-3041.81 230.1,-3041.81"/>
<text text-anchor="start" x="241.1" y="-3063.01" font-family="Helvetica,sans-Serif" font-weight="bold" font-size="32.00" fill="#29235c">installed_rank</text>
<text text-anchor="start" x="438.47" y="-3063.01" font-family="Helvetica,sans-Serif" font-size="32.00" fill="#29235c"> &#160;&#160;&#160;</text>
<text text-anchor="start" x="623.23" y="-3063.01" font-family="Helvetica,sans-Serif" font-style="italic" font-size="32.00" fill="#29235c">int</text>
<text text-anchor="start" x="657.01" y="-3063.01" font-family="Helvetica,sans-Serif" font-size="32.00" fill="#29235c"> </text>
<text text-anchor="start" x="665.91" y="-3063.01" font-family="Helvetica,sans-Serif" font-weight="bold" font-size="32.00" fill="#29235c">(!)</text>
<polygon fill="#e7e2dd" stroke="transparent" points="230.1,-2981.81 230.1,-3041.81 707.1,-3041.81 707.1,-2981.81 230.1,-2981.81"/>
<polygon fill="none" stroke="#29235c" points="230.1,-2981.81 230.1,-3041.81 707.1,-3041.81 707.1,-2981.81 230.1,-2981.81"/>
<text text-anchor="start" x="241.1" y="-3002.01" font-family="Helvetica,sans-Serif" font-size="32.00" fill="#29235c">version &#160;&#160;&#160;</text>
<text text-anchor="start" x="532.55" y="-3003.01" font-family="Helvetica,sans-Serif" font-style="italic" font-size="32.00" fill="#29235c">varchar(50)</text>
<polygon fill="#e7e2dd" stroke="transparent" points="230.1,-2921.81 230.1,-2981.81 707.1,-2981.81 707.1,-2921.81 230.1,-2921.81"/>
<polygon fill="none" stroke="#29235c" points="230.1,-2921.81 230.1,-2981.81 707.1,-2981.81 707.1,-2921.81 230.1,-2921.81"/>
<text text-anchor="start" x="241.1" y="-2942.01" font-family="Helvetica,sans-Serif" font-size="32.00" fill="#29235c">description &#160;&#160;&#160;</text>
<text text-anchor="start" x="475.67" y="-2943.01" font-family="Helvetica,sans-Serif" font-style="italic" font-size="32.00" fill="#29235c">varchar(200)</text>
<text text-anchor="start" x="657.01" y="-2943.01" font-family="Helvetica,sans-Serif" font-size="32.00" fill="#29235c"> </text>
<text text-anchor="start" x="665.91" y="-2943.01" font-family="Helvetica,sans-Serif" font-weight="bold" font-size="32.00" fill="#29235c">(!)</text>
<polygon fill="#e7e2dd" stroke="transparent" points="230.1,-2861.81 230.1,-2921.81 707.1,-2921.81 707.1,-2861.81 230.1,-2861.81"/>
<polygon fill="none" stroke="#29235c" points="230.1,-2861.81 230.1,-2921.81 707.1,-2921.81 707.1,-2861.81 230.1,-2861.81"/>
<text text-anchor="start" x="241.1" y="-2882.01" font-family="Helvetica,sans-Serif" font-size="32.00" fill="#29235c">type &#160;&#160;&#160;</text>
<text text-anchor="start" x="493.46" y="-2883.01" font-family="Helvetica,sans-Serif" font-style="italic" font-size="32.00" fill="#29235c">varchar(20)</text>
<text text-anchor="start" x="657.01" y="-2883.01" font-family="Helvetica,sans-Serif" font-size="32.00" fill="#29235c"> </text>
<text text-anchor="start" x="665.91" y="-2883.01" font-family="Helvetica,sans-Serif" font-weight="bold" font-size="32.00" fill="#29235c">(!)</text>
<polygon fill="#e7e2dd" stroke="transparent" points="230.1,-2801.81 230.1,-2861.81 707.1,-2861.81 707.1,-2801.81 230.1,-2801.81"/>
<polygon fill="none" stroke="#29235c" points="230.1,-2801.81 230.1,-2861.81 707.1,-2861.81 707.1,-2801.81 230.1,-2801.81"/>
<text text-anchor="start" x="241.1" y="-2822.01" font-family="Helvetica,sans-Serif" font-size="32.00" fill="#29235c">script &#160;&#160;&#160;</text>
<text text-anchor="start" x="457.88" y="-2823.01" font-family="Helvetica,sans-Serif" font-style="italic" font-size="32.00" fill="#29235c">varchar(1000)</text>
<text text-anchor="start" x="657.01" y="-2823.01" font-family="Helvetica,sans-Serif" font-size="32.00" fill="#29235c"> </text>
<text text-anchor="start" x="665.91" y="-2823.01" font-family="Helvetica,sans-Serif" font-weight="bold" font-size="32.00" fill="#29235c">(!)</text>
<polygon fill="#e7e2dd" stroke="transparent" points="230.1,-2741.81 230.1,-2801.81 707.1,-2801.81 707.1,-2741.81 230.1,-2741.81"/>
<polygon fill="none" stroke="#29235c" points="230.1,-2741.81 230.1,-2801.81 707.1,-2801.81 707.1,-2741.81 230.1,-2741.81"/>
<text text-anchor="start" x="241.1" y="-2762.01" font-family="Helvetica,sans-Serif" font-size="32.00" fill="#29235c">checksum &#160;&#160;&#160;</text>
<text text-anchor="start" x="662.32" y="-2763.01" font-family="Helvetica,sans-Serif" font-style="italic" font-size="32.00" fill="#29235c">int</text>
<polygon fill="#e7e2dd" stroke="transparent" points="230.1,-2681.81 230.1,-2741.81 707.1,-2741.81 707.1,-2681.81 230.1,-2681.81"/>
<polygon fill="none" stroke="#29235c" points="230.1,-2681.81 230.1,-2741.81 707.1,-2741.81 707.1,-2681.81 230.1,-2681.81"/>
<text text-anchor="start" x="241.1" y="-2702.01" font-family="Helvetica,sans-Serif" font-size="32.00" fill="#29235c">installed_by &#160;&#160;&#160;</text>
<text text-anchor="start" x="475.67" y="-2703.01" font-family="Helvetica,sans-Serif" font-style="italic" font-size="32.00" fill="#29235c">varchar(100)</text>
<text text-anchor="start" x="657.01" y="-2703.01" font-family="Helvetica,sans-Serif" font-size="32.00" fill="#29235c"> </text>
<text text-anchor="start" x="665.91" y="-2703.01" font-family="Helvetica,sans-Serif" font-weight="bold" font-size="32.00" fill="#29235c">(!)</text>
<polygon fill="#e7e2dd" stroke="transparent" points="230.1,-2621.81 230.1,-2681.81 707.1,-2681.81 707.1,-2621.81 230.1,-2621.81"/>
<polygon fill="none" stroke="#29235c" points="230.1,-2621.81 230.1,-2681.81 707.1,-2681.81 707.1,-2621.81 230.1,-2621.81"/>
<text text-anchor="start" x="241.1" y="-2642.01" font-family="Helvetica,sans-Serif" font-size="32.00" fill="#29235c">installed_on &#160;&#160;&#160;</text>
<text text-anchor="start" x="509.46" y="-2643.01" font-family="Helvetica,sans-Serif" font-style="italic" font-size="32.00" fill="#29235c">timestamp</text>
<text text-anchor="start" x="657.01" y="-2643.01" font-family="Helvetica,sans-Serif" font-size="32.00" fill="#29235c"> </text>
<text text-anchor="start" x="665.91" y="-2643.01" font-family="Helvetica,sans-Serif" font-weight="bold" font-size="32.00" fill="#29235c">(!)</text>
<polygon fill="#e7e2dd" stroke="transparent" points="230.1,-2561.81 230.1,-2621.81 707.1,-2621.81 707.1,-2561.81 230.1,-2561.81"/>
<polygon fill="none" stroke="#29235c" points="230.1,-2561.81 230.1,-2621.81 707.1,-2621.81 707.1,-2561.81 230.1,-2561.81"/>
<text text-anchor="start" x="241.1" y="-2582.01" font-family="Helvetica,sans-Serif" font-size="32.00" fill="#29235c">execution_time &#160;&#160;&#160;</text>
<text text-anchor="start" x="623.23" y="-2583.01" font-family="Helvetica,sans-Serif" font-style="italic" font-size="32.00" fill="#29235c">int</text>
<text text-anchor="start" x="657.01" y="-2583.01" font-family="Helvetica,sans-Serif" font-size="32.00" fill="#29235c"> </text>
<text text-anchor="start" x="665.91" y="-2583.01" font-family="Helvetica,sans-Serif" font-weight="bold" font-size="32.00" fill="#29235c">(!)</text>
<polygon fill="#e7e2dd" stroke="transparent" points="230.1,-2501.81 230.1,-2561.81 707.1,-2561.81 707.1,-2501.81 230.1,-2501.81"/>
<polygon fill="none" stroke="#29235c" points="230.1,-2501.81 230.1,-2561.81 707.1,-2561.81 707.1,-2501.81 230.1,-2501.81"/>
<text text-anchor="start" x="241.1" y="-2522.01" font-family="Helvetica,sans-Serif" font-size="32.00" fill="#29235c">success &#160;&#160;&#160;</text>
<text text-anchor="start" x="534.35" y="-2523.01" font-family="Helvetica,sans-Serif" font-style="italic" font-size="32.00" fill="#29235c">tinyint(1)</text>
<text text-anchor="start" x="657.01" y="-2523.01" font-family="Helvetica,sans-Serif" font-size="32.00" fill="#29235c"> </text>
<text text-anchor="start" x="665.91" y="-2523.01" font-family="Helvetica,sans-Serif" font-weight="bold" font-size="32.00" fill="#29235c">(!)</text>
<polygon fill="none" stroke="#29235c" stroke-width="2" points="228.6,-2500.81 228.6,-3162.81 707.6,-3162.81 707.6,-2500.81 228.6,-2500.81"/>
</g>
<!-- member -->
<g id="member" class="node">
<title>member</title>
<ellipse fill="none" stroke="black" stroke-width="0" cx="468.1" cy="-2001.81" rx="323.3" ry="342.48"/>
<polygon fill="#1d71b8" stroke="transparent" points="242.1,-2181.81 242.1,-2241.81 695.1,-2241.81 695.1,-2181.81 242.1,-2181.81"/>
<polygon fill="none" stroke="#29235c" points="242.1,-2181.81 242.1,-2241.81 695.1,-2241.81 695.1,-2181.81 242.1,-2181.81"/>
<text text-anchor="start" x="347.69" y="-2203.01" font-family="Helvetica,sans-Serif" font-weight="bold" font-size="32.00" fill="#ffffff"> &#160;&#160;&#160;&#160;&#160;&#160;member &#160;&#160;&#160;&#160;&#160;&#160;</text>
<polygon fill="#e7e2dd" stroke="transparent" points="242.1,-2121.81 242.1,-2181.81 695.1,-2181.81 695.1,-2121.81 242.1,-2121.81"/>
<polygon fill="none" stroke="#29235c" points="242.1,-2121.81 242.1,-2181.81 695.1,-2181.81 695.1,-2121.81 242.1,-2121.81"/>
<text text-anchor="start" x="253.1" y="-2143.01" font-family="Helvetica,sans-Serif" font-weight="bold" font-size="32.00" fill="#29235c">id</text>
<text text-anchor="start" x="277.99" y="-2143.01" font-family="Helvetica,sans-Serif" font-size="32.00" fill="#29235c"> &#160;&#160;&#160;</text>
<text text-anchor="start" x="568.55" y="-2143.01" font-family="Helvetica,sans-Serif" font-style="italic" font-size="32.00" fill="#29235c">bigint</text>
<text text-anchor="start" x="645.01" y="-2143.01" font-family="Helvetica,sans-Serif" font-size="32.00" fill="#29235c"> </text>
<text text-anchor="start" x="653.91" y="-2143.01" font-family="Helvetica,sans-Serif" font-weight="bold" font-size="32.00" fill="#29235c">(!)</text>
<polygon fill="#e7e2dd" stroke="transparent" points="242.1,-2061.81 242.1,-2121.81 695.1,-2121.81 695.1,-2061.81 242.1,-2061.81"/>
<polygon fill="none" stroke="#29235c" points="242.1,-2061.81 242.1,-2121.81 695.1,-2121.81 695.1,-2061.81 242.1,-2061.81"/>
<text text-anchor="start" x="253.1" y="-2082.01" font-family="Helvetica,sans-Serif" font-size="32.00" fill="#29235c">email &#160;&#160;&#160;</text>
<text text-anchor="start" x="463.67" y="-2083.01" font-family="Helvetica,sans-Serif" font-style="italic" font-size="32.00" fill="#29235c">varchar(255)</text>
<text text-anchor="start" x="645.01" y="-2083.01" font-family="Helvetica,sans-Serif" font-size="32.00" fill="#29235c"> </text>
<text text-anchor="start" x="653.91" y="-2083.01" font-family="Helvetica,sans-Serif" font-weight="bold" font-size="32.00" fill="#29235c">(!)</text>
<polygon fill="#e7e2dd" stroke="transparent" points="242.1,-2001.81 242.1,-2061.81 695.1,-2061.81 695.1,-2001.81 242.1,-2001.81"/>
<polygon fill="none" stroke="#29235c" points="242.1,-2001.81 242.1,-2061.81 695.1,-2061.81 695.1,-2001.81 242.1,-2001.81"/>
<text text-anchor="start" x="253.1" y="-2022.01" font-family="Helvetica,sans-Serif" font-size="32.00" fill="#29235c">social_id &#160;&#160;&#160;</text>
<text text-anchor="start" x="463.67" y="-2023.01" font-family="Helvetica,sans-Serif" font-style="italic" font-size="32.00" fill="#29235c">varchar(255)</text>
<text text-anchor="start" x="645.01" y="-2023.01" font-family="Helvetica,sans-Serif" font-size="32.00" fill="#29235c"> </text>
<text text-anchor="start" x="653.91" y="-2023.01" font-family="Helvetica,sans-Serif" font-weight="bold" font-size="32.00" fill="#29235c">(!)</text>
<polygon fill="#e7e2dd" stroke="transparent" points="242.1,-1941.81 242.1,-2001.81 695.1,-2001.81 695.1,-1941.81 242.1,-1941.81"/>
<polygon fill="none" stroke="#29235c" points="242.1,-1941.81 242.1,-2001.81 695.1,-2001.81 695.1,-1941.81 242.1,-1941.81"/>
<text text-anchor="start" x="253.1" y="-1962.01" font-family="Helvetica,sans-Serif" font-size="32.00" fill="#29235c">nickname &#160;&#160;&#160;</text>
<text text-anchor="start" x="502.76" y="-1963.01" font-family="Helvetica,sans-Serif" font-style="italic" font-size="32.00" fill="#29235c">varchar(255)</text>
<polygon fill="#e7e2dd" stroke="transparent" points="242.1,-1881.81 242.1,-1941.81 695.1,-1941.81 695.1,-1881.81 242.1,-1881.81"/>
<polygon fill="none" stroke="#29235c" points="242.1,-1881.81 242.1,-1941.81 695.1,-1941.81 695.1,-1881.81 242.1,-1881.81"/>
<text text-anchor="start" x="252.72" y="-1902.01" font-family="Helvetica,sans-Serif" font-size="32.00" fill="#29235c">phone_number &#160;&#160;&#160;</text>
<text text-anchor="start" x="502.93" y="-1903.01" font-family="Helvetica,sans-Serif" font-style="italic" font-size="32.00" fill="#29235c">varchar(255)</text>
<polygon fill="#e7e2dd" stroke="transparent" points="242.1,-1821.81 242.1,-1881.81 695.1,-1881.81 695.1,-1821.81 242.1,-1821.81"/>
<polygon fill="none" stroke="#29235c" points="242.1,-1821.81 242.1,-1881.81 695.1,-1881.81 695.1,-1821.81 242.1,-1821.81"/>
<text text-anchor="start" x="253.1" y="-1842.01" font-family="Helvetica,sans-Serif" font-size="32.00" fill="#29235c">opt_in_marketing &#160;&#160;&#160;</text>
<text text-anchor="start" x="561.45" y="-1843.01" font-family="Helvetica,sans-Serif" font-style="italic" font-size="32.00" fill="#29235c">tinyint(1)</text>
<polygon fill="#e7e2dd" stroke="transparent" points="242.1,-1761.81 242.1,-1821.81 695.1,-1821.81 695.1,-1761.81 242.1,-1761.81"/>
<polygon fill="none" stroke="#29235c" points="242.1,-1761.81 242.1,-1821.81 695.1,-1821.81 695.1,-1761.81 242.1,-1761.81"/>
<text text-anchor="start" x="253.1" y="-1782.01" font-family="Helvetica,sans-Serif" font-size="32.00" fill="#29235c">created_at &#160;&#160;&#160;</text>
<text text-anchor="start" x="497.46" y="-1783.01" font-family="Helvetica,sans-Serif" font-style="italic" font-size="32.00" fill="#29235c">timestamp</text>
<text text-anchor="start" x="645.01" y="-1783.01" font-family="Helvetica,sans-Serif" font-size="32.00" fill="#29235c"> </text>
<text text-anchor="start" x="653.91" y="-1783.01" font-family="Helvetica,sans-Serif" font-weight="bold" font-size="32.00" fill="#29235c">(!)</text>
<polygon fill="none" stroke="#29235c" stroke-width="2" points="240.6,-1760.81 240.6,-2242.81 695.6,-2242.81 695.6,-1760.81 240.6,-1760.81"/>
</g>
<!-- member&#45;&gt;cheer -->
<!-- member&#45;&gt;cheer -->
<g id="edge2" class="edge">
<title>member:e&#45;&gt;cheer:w</title>
<path fill="none" stroke="#29235c" stroke-width="3" d="M696.1,-2151.81C923.82,-2151.81 827.46,-1787.11 1045.37,-1776.07"/>
<polygon fill="#29235c" stroke="#29235c" stroke-width="3" points="1045.73,-1779.56 1055.64,-1775.81 1045.55,-1772.56 1045.73,-1779.56"/>
<text text-anchor="middle" x="1049.42" y="-1785.41" font-family="Helvetica,sans-Serif" font-size="32.00" fill="#29235c">*</text>
<text text-anchor="middle" x="705" y="-2161.41" font-family="Helvetica,sans-Serif" font-size="32.00" fill="#29235c">1</text>
</g>
<!-- store -->
<g id="store" class="node">
<title>store</title>
<ellipse fill="none" stroke="black" stroke-width="0" cx="468.1" cy="-1129.81" rx="405.34" ry="511.89"/>
<polygon fill="#1d71b8" stroke="transparent" points="184.1,-1429.81 184.1,-1489.81 753.1,-1489.81 753.1,-1429.81 184.1,-1429.81"/>
<polygon fill="none" stroke="#29235c" points="184.1,-1429.81 184.1,-1489.81 753.1,-1489.81 753.1,-1429.81 184.1,-1429.81"/>
<text text-anchor="start" x="370.79" y="-1451.01" font-family="Helvetica,sans-Serif" font-weight="bold" font-size="32.00" fill="#ffffff"> &#160;&#160;&#160;&#160;&#160;&#160;store &#160;&#160;&#160;&#160;&#160;&#160;</text>
<polygon fill="#e7e2dd" stroke="transparent" points="184.1,-1369.81 184.1,-1429.81 753.1,-1429.81 753.1,-1369.81 184.1,-1369.81"/>
<polygon fill="none" stroke="#29235c" points="184.1,-1369.81 184.1,-1429.81 753.1,-1429.81 753.1,-1369.81 184.1,-1369.81"/>
<text text-anchor="start" x="195.1" y="-1391.01" font-family="Helvetica,sans-Serif" font-weight="bold" font-size="32.00" fill="#29235c">id</text>
<text text-anchor="start" x="219.99" y="-1391.01" font-family="Helvetica,sans-Serif" font-size="32.00" fill="#29235c"> &#160;&#160;&#160;</text>
<text text-anchor="start" x="626.55" y="-1391.01" font-family="Helvetica,sans-Serif" font-style="italic" font-size="32.00" fill="#29235c">bigint</text>
<text text-anchor="start" x="703.01" y="-1391.01" font-family="Helvetica,sans-Serif" font-size="32.00" fill="#29235c"> </text>
<text text-anchor="start" x="711.91" y="-1391.01" font-family="Helvetica,sans-Serif" font-weight="bold" font-size="32.00" fill="#29235c">(!)</text>
<polygon fill="#e7e2dd" stroke="transparent" points="184.1,-1309.81 184.1,-1369.81 753.1,-1369.81 753.1,-1309.81 184.1,-1309.81"/>
<polygon fill="none" stroke="#29235c" points="184.1,-1309.81 184.1,-1369.81 753.1,-1369.81 753.1,-1309.81 184.1,-1309.81"/>
<text text-anchor="start" x="195.1" y="-1330.01" font-family="Helvetica,sans-Serif" font-size="32.00" fill="#29235c">kakao_id &#160;&#160;&#160;</text>
<text text-anchor="start" x="521.67" y="-1331.01" font-family="Helvetica,sans-Serif" font-style="italic" font-size="32.00" fill="#29235c">varchar(255)</text>
<text text-anchor="start" x="703.01" y="-1331.01" font-family="Helvetica,sans-Serif" font-size="32.00" fill="#29235c"> </text>
<text text-anchor="start" x="711.91" y="-1331.01" font-family="Helvetica,sans-Serif" font-weight="bold" font-size="32.00" fill="#29235c">(!)</text>
<polygon fill="#e7e2dd" stroke="transparent" points="184.1,-1249.81 184.1,-1309.81 753.1,-1309.81 753.1,-1249.81 184.1,-1249.81"/>
<polygon fill="none" stroke="#29235c" points="184.1,-1249.81 184.1,-1309.81 753.1,-1309.81 753.1,-1249.81 184.1,-1249.81"/>
<text text-anchor="start" x="195.1" y="-1270.01" font-family="Helvetica,sans-Serif" font-size="32.00" fill="#29235c">category &#160;&#160;&#160;</text>
<text text-anchor="start" x="539.46" y="-1271.01" font-family="Helvetica,sans-Serif" font-style="italic" font-size="32.00" fill="#29235c">varchar(50)</text>
<text text-anchor="start" x="703.01" y="-1271.01" font-family="Helvetica,sans-Serif" font-size="32.00" fill="#29235c"> </text>
<text text-anchor="start" x="711.91" y="-1271.01" font-family="Helvetica,sans-Serif" font-weight="bold" font-size="32.00" fill="#29235c">(!)</text>
<polygon fill="#e7e2dd" stroke="transparent" points="184.1,-1189.81 184.1,-1249.81 753.1,-1249.81 753.1,-1189.81 184.1,-1189.81"/>
<polygon fill="none" stroke="#29235c" points="184.1,-1189.81 184.1,-1249.81 753.1,-1249.81 753.1,-1189.81 184.1,-1189.81"/>
<text text-anchor="start" x="195.1" y="-1210.01" font-family="Helvetica,sans-Serif" font-size="32.00" fill="#29235c">phone_number &#160;&#160;&#160;</text>
<text text-anchor="start" x="521.67" y="-1211.01" font-family="Helvetica,sans-Serif" font-style="italic" font-size="32.00" fill="#29235c">varchar(255)</text>
<text text-anchor="start" x="703.01" y="-1211.01" font-family="Helvetica,sans-Serif" font-size="32.00" fill="#29235c"> </text>
<text text-anchor="start" x="711.91" y="-1211.01" font-family="Helvetica,sans-Serif" font-weight="bold" font-size="32.00" fill="#29235c">(!)</text>
<polygon fill="#e7e2dd" stroke="transparent" points="184.1,-1129.81 184.1,-1189.81 753.1,-1189.81 753.1,-1129.81 184.1,-1129.81"/>
<polygon fill="none" stroke="#29235c" points="184.1,-1129.81 184.1,-1189.81 753.1,-1189.81 753.1,-1129.81 184.1,-1129.81"/>
<text text-anchor="start" x="195.1" y="-1150.01" font-family="Helvetica,sans-Serif" font-size="32.00" fill="#29235c">name &#160;&#160;&#160;</text>
<text text-anchor="start" x="521.67" y="-1151.01" font-family="Helvetica,sans-Serif" font-style="italic" font-size="32.00" fill="#29235c">varchar(255)</text>
<text text-anchor="start" x="703.01" y="-1151.01" font-family="Helvetica,sans-Serif" font-size="32.00" fill="#29235c"> </text>
<text text-anchor="start" x="711.91" y="-1151.01" font-family="Helvetica,sans-Serif" font-weight="bold" font-size="32.00" fill="#29235c">(!)</text>
<polygon fill="#e7e2dd" stroke="transparent" points="184.1,-1069.81 184.1,-1129.81 753.1,-1129.81 753.1,-1069.81 184.1,-1069.81"/>
<polygon fill="none" stroke="#29235c" points="184.1,-1069.81 184.1,-1129.81 753.1,-1129.81 753.1,-1069.81 184.1,-1069.81"/>
<text text-anchor="start" x="195.1" y="-1090.01" font-family="Helvetica,sans-Serif" font-size="32.00" fill="#29235c">place_url &#160;&#160;&#160;</text>
<text text-anchor="start" x="521.67" y="-1091.01" font-family="Helvetica,sans-Serif" font-style="italic" font-size="32.00" fill="#29235c">varchar(255)</text>
<text text-anchor="start" x="703.01" y="-1091.01" font-family="Helvetica,sans-Serif" font-size="32.00" fill="#29235c"> </text>
<text text-anchor="start" x="711.91" y="-1091.01" font-family="Helvetica,sans-Serif" font-weight="bold" font-size="32.00" fill="#29235c">(!)</text>
<polygon fill="#e7e2dd" stroke="transparent" points="184.1,-1009.81 184.1,-1069.81 753.1,-1069.81 753.1,-1009.81 184.1,-1009.81"/>
<polygon fill="none" stroke="#29235c" points="184.1,-1009.81 184.1,-1069.81 753.1,-1069.81 753.1,-1009.81 184.1,-1009.81"/>
<text text-anchor="start" x="195.1" y="-1030.01" font-family="Helvetica,sans-Serif" font-size="32.00" fill="#29235c">road_address &#160;&#160;&#160;</text>
<text text-anchor="start" x="521.67" y="-1031.01" font-family="Helvetica,sans-Serif" font-style="italic" font-size="32.00" fill="#29235c">varchar(255)</text>
<text text-anchor="start" x="703.01" y="-1031.01" font-family="Helvetica,sans-Serif" font-size="32.00" fill="#29235c"> </text>
<text text-anchor="start" x="711.91" y="-1031.01" font-family="Helvetica,sans-Serif" font-weight="bold" font-size="32.00" fill="#29235c">(!)</text>
<polygon fill="#e7e2dd" stroke="transparent" points="184.1,-949.81 184.1,-1009.81 753.1,-1009.81 753.1,-949.81 184.1,-949.81"/>
<polygon fill="none" stroke="#29235c" points="184.1,-949.81 184.1,-1009.81 753.1,-1009.81 753.1,-949.81 184.1,-949.81"/>
<text text-anchor="start" x="195" y="-970.01" font-family="Helvetica,sans-Serif" font-size="32.00" fill="#29235c">lot_number_address &#160;&#160;&#160;</text>
<text text-anchor="start" x="521.89" y="-971.01" font-family="Helvetica,sans-Serif" font-style="italic" font-size="32.00" fill="#29235c">varchar(255)</text>
<text text-anchor="start" x="703.23" y="-971.01" font-family="Helvetica,sans-Serif" font-size="32.00" fill="#29235c"> </text>
<text text-anchor="start" x="712.12" y="-971.01" font-family="Helvetica,sans-Serif" font-weight="bold" font-size="32.00" fill="#29235c">(!)</text>
<polygon fill="#e7e2dd" stroke="transparent" points="184.1,-889.81 184.1,-949.81 753.1,-949.81 753.1,-889.81 184.1,-889.81"/>
<polygon fill="none" stroke="#29235c" points="184.1,-889.81 184.1,-949.81 753.1,-949.81 753.1,-889.81 184.1,-889.81"/>
<text text-anchor="start" x="195.1" y="-910.01" font-family="Helvetica,sans-Serif" font-size="32.00" fill="#29235c">latitude &#160;&#160;&#160;</text>
<text text-anchor="start" x="606.97" y="-911.01" font-family="Helvetica,sans-Serif" font-style="italic" font-size="32.00" fill="#29235c">double</text>
<text text-anchor="start" x="703.01" y="-911.01" font-family="Helvetica,sans-Serif" font-size="32.00" fill="#29235c"> </text>
<text text-anchor="start" x="711.91" y="-911.01" font-family="Helvetica,sans-Serif" font-weight="bold" font-size="32.00" fill="#29235c">(!)</text>
<polygon fill="#e7e2dd" stroke="transparent" points="184.1,-829.81 184.1,-889.81 753.1,-889.81 753.1,-829.81 184.1,-829.81"/>
<polygon fill="none" stroke="#29235c" points="184.1,-829.81 184.1,-889.81 753.1,-889.81 753.1,-829.81 184.1,-829.81"/>
<text text-anchor="start" x="195.1" y="-850.01" font-family="Helvetica,sans-Serif" font-size="32.00" fill="#29235c">longitude &#160;&#160;&#160;</text>
<text text-anchor="start" x="606.97" y="-851.01" font-family="Helvetica,sans-Serif" font-style="italic" font-size="32.00" fill="#29235c">double</text>
<text text-anchor="start" x="703.01" y="-851.01" font-family="Helvetica,sans-Serif" font-size="32.00" fill="#29235c"> </text>
<text text-anchor="start" x="711.91" y="-851.01" font-family="Helvetica,sans-Serif" font-weight="bold" font-size="32.00" fill="#29235c">(!)</text>
<polygon fill="#e7e2dd" stroke="transparent" points="184.1,-769.81 184.1,-829.81 753.1,-829.81 753.1,-769.81 184.1,-769.81"/>
<polygon fill="none" stroke="#29235c" points="184.1,-769.81 184.1,-829.81 753.1,-829.81 753.1,-769.81 184.1,-769.81"/>
<text text-anchor="start" x="195.1" y="-790.01" font-family="Helvetica,sans-Serif" font-size="32.00" fill="#29235c">created_at &#160;&#160;&#160;</text>
<text text-anchor="start" x="555.46" y="-791.01" font-family="Helvetica,sans-Serif" font-style="italic" font-size="32.00" fill="#29235c">timestamp</text>
<text text-anchor="start" x="703.01" y="-791.01" font-family="Helvetica,sans-Serif" font-size="32.00" fill="#29235c"> </text>
<text text-anchor="start" x="711.91" y="-791.01" font-family="Helvetica,sans-Serif" font-weight="bold" font-size="32.00" fill="#29235c">(!)</text>
<polygon fill="none" stroke="#29235c" stroke-width="2" points="182.6,-768.81 182.6,-1490.81 753.6,-1490.81 753.6,-768.81 182.6,-768.81"/>
</g>
<!-- store&#45;&gt;cheer -->
<!-- store&#45;&gt;cheer -->
<g id="edge4" class="edge">
<title>store:e&#45;&gt;cheer:w</title>
<path fill="none" stroke="#29235c" stroke-width="3" d="M754.1,-1399.81C944.72,-1399.81 864.55,-1704.5 1045.39,-1715.51"/>
<polygon fill="#29235c" stroke="#29235c" stroke-width="3" points="1045.54,-1719.01 1055.64,-1715.81 1045.75,-1712.02 1045.54,-1719.01"/>
<text text-anchor="middle" x="1049.42" y="-1725.41" font-family="Helvetica,sans-Serif" font-size="32.00" fill="#29235c">*</text>
<text text-anchor="middle" x="763" y="-1409.41" font-family="Helvetica,sans-Serif" font-size="32.00" fill="#29235c">1</text>
</g>
<!-- story -->
<g id="story" class="node">
<title>story</title>
<ellipse fill="none" stroke="black" stroke-width="0" cx="468.1" cy="-3788.81" rx="468.21" ry="469.54"/>
<polygon fill="#1d71b8" stroke="transparent" points="139.1,-4058.81 139.1,-4118.81 797.1,-4118.81 797.1,-4058.81 139.1,-4058.81"/>
<polygon fill="none" stroke="#29235c" points="139.1,-4058.81 139.1,-4118.81 797.1,-4118.81 797.1,-4058.81 139.1,-4058.81"/>
<text text-anchor="start" x="371.19" y="-4080.01" font-family="Helvetica,sans-Serif" font-weight="bold" font-size="32.00" fill="#ffffff"> &#160;&#160;&#160;&#160;&#160;&#160;story &#160;&#160;&#160;&#160;&#160;&#160;</text>
<polygon fill="#e7e2dd" stroke="transparent" points="139.1,-3998.81 139.1,-4058.81 797.1,-4058.81 797.1,-3998.81 139.1,-3998.81"/>
<polygon fill="none" stroke="#29235c" points="139.1,-3998.81 139.1,-4058.81 797.1,-4058.81 797.1,-3998.81 139.1,-3998.81"/>
<text text-anchor="start" x="150.1" y="-4020.01" font-family="Helvetica,sans-Serif" font-weight="bold" font-size="32.00" fill="#29235c">id</text>
<text text-anchor="start" x="174.99" y="-4020.01" font-family="Helvetica,sans-Serif" font-size="32.00" fill="#29235c"> &#160;&#160;&#160;</text>
<text text-anchor="start" x="670.55" y="-4020.01" font-family="Helvetica,sans-Serif" font-style="italic" font-size="32.00" fill="#29235c">bigint</text>
<text text-anchor="start" x="747.01" y="-4020.01" font-family="Helvetica,sans-Serif" font-size="32.00" fill="#29235c"> </text>
<text text-anchor="start" x="755.91" y="-4020.01" font-family="Helvetica,sans-Serif" font-weight="bold" font-size="32.00" fill="#29235c">(!)</text>
<polygon fill="#e7e2dd" stroke="transparent" points="139.1,-3938.81 139.1,-3998.81 797.1,-3998.81 797.1,-3938.81 139.1,-3938.81"/>
<polygon fill="none" stroke="#29235c" points="139.1,-3938.81 139.1,-3998.81 797.1,-3998.81 797.1,-3938.81 139.1,-3938.81"/>
<text text-anchor="start" x="150.1" y="-3959.01" font-family="Helvetica,sans-Serif" font-size="32.00" fill="#29235c">member_id &#160;&#160;&#160;</text>
<text text-anchor="start" x="670.55" y="-3960.01" font-family="Helvetica,sans-Serif" font-style="italic" font-size="32.00" fill="#29235c">bigint</text>
<text text-anchor="start" x="747.01" y="-3960.01" font-family="Helvetica,sans-Serif" font-size="32.00" fill="#29235c"> </text>
<text text-anchor="start" x="755.91" y="-3960.01" font-family="Helvetica,sans-Serif" font-weight="bold" font-size="32.00" fill="#29235c">(!)</text>
<polygon fill="#e7e2dd" stroke="transparent" points="139.1,-3878.81 139.1,-3938.81 797.1,-3938.81 797.1,-3878.81 139.1,-3878.81"/>
<polygon fill="none" stroke="#29235c" points="139.1,-3878.81 139.1,-3938.81 797.1,-3938.81 797.1,-3878.81 139.1,-3878.81"/>
<text text-anchor="start" x="150.1" y="-3899.01" font-family="Helvetica,sans-Serif" font-size="32.00" fill="#29235c">store_kakao_id &#160;&#160;&#160;</text>
<text text-anchor="start" x="565.67" y="-3900.01" font-family="Helvetica,sans-Serif" font-style="italic" font-size="32.00" fill="#29235c">varchar(255)</text>
<text text-anchor="start" x="747.01" y="-3900.01" font-family="Helvetica,sans-Serif" font-size="32.00" fill="#29235c"> </text>
<text text-anchor="start" x="755.91" y="-3900.01" font-family="Helvetica,sans-Serif" font-weight="bold" font-size="32.00" fill="#29235c">(!)</text>
<polygon fill="#e7e2dd" stroke="transparent" points="139.1,-3818.81 139.1,-3878.81 797.1,-3878.81 797.1,-3818.81 139.1,-3818.81"/>
<polygon fill="none" stroke="#29235c" points="139.1,-3818.81 139.1,-3878.81 797.1,-3878.81 797.1,-3818.81 139.1,-3818.81"/>
<text text-anchor="start" x="150.1" y="-3839.01" font-family="Helvetica,sans-Serif" font-size="32.00" fill="#29235c">store_name &#160;&#160;&#160;</text>
<text text-anchor="start" x="565.67" y="-3840.01" font-family="Helvetica,sans-Serif" font-style="italic" font-size="32.00" fill="#29235c">varchar(255)</text>
<text text-anchor="start" x="747.01" y="-3840.01" font-family="Helvetica,sans-Serif" font-size="32.00" fill="#29235c"> </text>
<text text-anchor="start" x="755.91" y="-3840.01" font-family="Helvetica,sans-Serif" font-weight="bold" font-size="32.00" fill="#29235c">(!)</text>
<polygon fill="#e7e2dd" stroke="transparent" points="139.1,-3758.81 139.1,-3818.81 797.1,-3818.81 797.1,-3758.81 139.1,-3758.81"/>
<polygon fill="none" stroke="#29235c" points="139.1,-3758.81 139.1,-3818.81 797.1,-3818.81 797.1,-3758.81 139.1,-3758.81"/>
<text text-anchor="start" x="150.1" y="-3779.01" font-family="Helvetica,sans-Serif" font-size="32.00" fill="#29235c">store_road_address &#160;&#160;&#160;</text>
<text text-anchor="start" x="565.67" y="-3780.01" font-family="Helvetica,sans-Serif" font-style="italic" font-size="32.00" fill="#29235c">varchar(255)</text>
<text text-anchor="start" x="747.01" y="-3780.01" font-family="Helvetica,sans-Serif" font-size="32.00" fill="#29235c"> </text>
<text text-anchor="start" x="755.91" y="-3780.01" font-family="Helvetica,sans-Serif" font-weight="bold" font-size="32.00" fill="#29235c">(!)</text>
<polygon fill="#e7e2dd" stroke="transparent" points="139.1,-3698.81 139.1,-3758.81 797.1,-3758.81 797.1,-3698.81 139.1,-3698.81"/>
<polygon fill="none" stroke="#29235c" points="139.1,-3698.81 139.1,-3758.81 797.1,-3758.81 797.1,-3698.81 139.1,-3698.81"/>
<text text-anchor="start" x="150.05" y="-3719.01" font-family="Helvetica,sans-Serif" font-size="32.00" fill="#29235c">store_lot_number_address &#160;&#160;&#160;</text>
<text text-anchor="start" x="565.89" y="-3720.01" font-family="Helvetica,sans-Serif" font-style="italic" font-size="32.00" fill="#29235c">varchar(255)</text>
<text text-anchor="start" x="747.23" y="-3720.01" font-family="Helvetica,sans-Serif" font-size="32.00" fill="#29235c"> </text>
<text text-anchor="start" x="756.12" y="-3720.01" font-family="Helvetica,sans-Serif" font-weight="bold" font-size="32.00" fill="#29235c">(!)</text>
<polygon fill="#e7e2dd" stroke="transparent" points="139.1,-3638.81 139.1,-3698.81 797.1,-3698.81 797.1,-3638.81 139.1,-3638.81"/>
<polygon fill="none" stroke="#29235c" points="139.1,-3638.81 139.1,-3698.81 797.1,-3698.81 797.1,-3638.81 139.1,-3638.81"/>
<text text-anchor="start" x="150.1" y="-3659.01" font-family="Helvetica,sans-Serif" font-size="32.00" fill="#29235c">store_category &#160;&#160;&#160;</text>
<text text-anchor="start" x="583.46" y="-3660.01" font-family="Helvetica,sans-Serif" font-style="italic" font-size="32.00" fill="#29235c">varchar(50)</text>
<text text-anchor="start" x="747.01" y="-3660.01" font-family="Helvetica,sans-Serif" font-size="32.00" fill="#29235c"> </text>
<text text-anchor="start" x="755.91" y="-3660.01" font-family="Helvetica,sans-Serif" font-weight="bold" font-size="32.00" fill="#29235c">(!)</text>
<polygon fill="#e7e2dd" stroke="transparent" points="139.1,-3578.81 139.1,-3638.81 797.1,-3638.81 797.1,-3578.81 139.1,-3578.81"/>
<polygon fill="none" stroke="#29235c" points="139.1,-3578.81 139.1,-3638.81 797.1,-3638.81 797.1,-3578.81 139.1,-3578.81"/>
<text text-anchor="start" x="150.1" y="-3599.01" font-family="Helvetica,sans-Serif" font-size="32.00" fill="#29235c">description &#160;&#160;&#160;</text>
<text text-anchor="start" x="734.53" y="-3600.01" font-family="Helvetica,sans-Serif" font-style="italic" font-size="32.00" fill="#29235c">text</text>
<polygon fill="#e7e2dd" stroke="transparent" points="139.1,-3518.81 139.1,-3578.81 797.1,-3578.81 797.1,-3518.81 139.1,-3518.81"/>
<polygon fill="none" stroke="#29235c" points="139.1,-3518.81 139.1,-3578.81 797.1,-3578.81 797.1,-3518.81 139.1,-3518.81"/>
<text text-anchor="start" x="150.1" y="-3539.01" font-family="Helvetica,sans-Serif" font-size="32.00" fill="#29235c">image_key &#160;&#160;&#160;</text>
<text text-anchor="start" x="565.67" y="-3540.01" font-family="Helvetica,sans-Serif" font-style="italic" font-size="32.00" fill="#29235c">varchar(511)</text>
<text text-anchor="start" x="747.01" y="-3540.01" font-family="Helvetica,sans-Serif" font-size="32.00" fill="#29235c"> </text>
<text text-anchor="start" x="755.91" y="-3540.01" font-family="Helvetica,sans-Serif" font-weight="bold" font-size="32.00" fill="#29235c">(!)</text>
<polygon fill="#e7e2dd" stroke="transparent" points="139.1,-3458.81 139.1,-3518.81 797.1,-3518.81 797.1,-3458.81 139.1,-3458.81"/>
<polygon fill="none" stroke="#29235c" points="139.1,-3458.81 139.1,-3518.81 797.1,-3518.81 797.1,-3458.81 139.1,-3458.81"/>
<text text-anchor="start" x="150.1" y="-3479.01" font-family="Helvetica,sans-Serif" font-size="32.00" fill="#29235c">created_at &#160;&#160;&#160;</text>
<text text-anchor="start" x="599.46" y="-3480.01" font-family="Helvetica,sans-Serif" font-style="italic" font-size="32.00" fill="#29235c">timestamp</text>
<text text-anchor="start" x="747.01" y="-3480.01" font-family="Helvetica,sans-Serif" font-size="32.00" fill="#29235c"> </text>
<text text-anchor="start" x="755.91" y="-3480.01" font-family="Helvetica,sans-Serif" font-weight="bold" font-size="32.00" fill="#29235c">(!)</text>
<polygon fill="none" stroke="#29235c" stroke-width="2" points="138.1,-3457.81 138.1,-4119.81 798.1,-4119.81 798.1,-3457.81 138.1,-3457.81"/>
</g>
</g>
</svg>
