<?xml version="1.0" encoding="UTF-8" standalone="no"?>
<!DOCTYPE svg PUBLIC "-//W3C//DTD SVG 1.1//EN"
 "http://www.w3.org/Graphics/SVG/1.1/DTD/svg11.dtd">
<!-- Generated by graphviz version 2.47.0 (20210316.0004)
 -->
<!-- Title: dbml Pages: 1 -->
<svg width="709pt" height="3841pt"
 viewBox="0.00 0.00 709.45 3840.91" xmlns="http://www.w3.org/2000/svg" xmlns:xlink="http://www.w3.org/1999/xlink">
<g id="graph0" class="graph" transform="scale(1 1) rotate(0) translate(4 3836.91)">
<title>dbml</title>
<!-- bookmark -->
<g id="bookmark" class="node">
<title>bookmark</title>
<ellipse fill="none" stroke="black" stroke-width="0" cx="350.72" cy="-172.53" rx="237.68" ry="172.57"/>
<polygon fill="#1d71b8" stroke="transparent" points="184.72,-232.53 184.72,-292.53 516.72,-292.53 516.72,-232.53 184.72,-232.53"/>
<polygon fill="none" stroke="#29235c" points="184.72,-232.53 184.72,-292.53 516.72,-292.53 516.72,-232.53 184.72,-232.53"/>
<text text-anchor="start" x="218.24" y="-253.73" font-family="Helvetica,sans-Serif" font-weight="bold" font-size="32.00" fill="#ffffff"> &#160;&#160;&#160;&#160;&#160;&#160;bookmark &#160;&#160;&#160;&#160;&#160;&#160;</text>
<polygon fill="#e7e2dd" stroke="transparent" points="184.72,-172.53 184.72,-232.53 516.72,-232.53 516.72,-172.53 184.72,-172.53"/>
<polygon fill="none" stroke="#29235c" points="184.72,-172.53 184.72,-232.53 516.72,-232.53 516.72,-172.53 184.72,-172.53"/>
<text text-anchor="start" x="195.72" y="-193.73" font-family="Helvetica,sans-Serif" font-weight="bold" font-size="32.00" fill="#29235c">id</text>
<text text-anchor="start" x="220.61" y="-193.73" font-family="Helvetica,sans-Serif" font-size="32.00" fill="#29235c"> &#160;&#160;&#160;</text>
<text text-anchor="start" x="390.17" y="-193.73" font-family="Helvetica,sans-Serif" font-style="italic" font-size="32.00" fill="#29235c">bigint</text>
<text text-anchor="start" x="466.63" y="-193.73" font-family="Helvetica,sans-Serif" font-size="32.00" fill="#29235c"> </text>
<text text-anchor="start" x="475.53" y="-193.73" font-family="Helvetica,sans-Serif" font-weight="bold" font-size="32.00" fill="#29235c">(!)</text>
<polygon fill="#e7e2dd" stroke="transparent" points="184.72,-112.53 184.72,-172.53 516.72,-172.53 516.72,-112.53 184.72,-112.53"/>
<polygon fill="none" stroke="#29235c" points="184.72,-112.53 184.72,-172.53 516.72,-172.53 516.72,-112.53 184.72,-112.53"/>
<text text-anchor="start" x="195.44" y="-132.73" font-family="Helvetica,sans-Serif" font-size="32.00" fill="#29235c">member_id &#160;&#160;&#160;</text>
<text text-anchor="start" x="390.45" y="-133.73" font-family="Helvetica,sans-Serif" font-style="italic" font-size="32.00" fill="#29235c">bigint</text>
<text text-anchor="start" x="466.91" y="-133.73" font-family="Helvetica,sans-Serif" font-size="32.00" fill="#29235c"> </text>
<text text-anchor="start" x="475.8" y="-133.73" font-family="Helvetica,sans-Serif" font-weight="bold" font-size="32.00" fill="#29235c">(!)</text>
<polygon fill="#e7e2dd" stroke="transparent" points="184.72,-52.53 184.72,-112.53 516.72,-112.53 516.72,-52.53 184.72,-52.53"/>
<polygon fill="none" stroke="#29235c" points="184.72,-52.53 184.72,-112.53 516.72,-112.53 516.72,-52.53 184.72,-52.53"/>
<text text-anchor="start" x="195.72" y="-72.73" font-family="Helvetica,sans-Serif" font-size="32.00" fill="#29235c">store_id &#160;&#160;&#160;</text>
<text text-anchor="start" x="390.17" y="-73.73" font-family="Helvetica,sans-Serif" font-style="italic" font-size="32.00" fill="#29235c">bigint</text>
<text text-anchor="start" x="466.63" y="-73.73" font-family="Helvetica,sans-Serif" font-size="32.00" fill="#29235c"> </text>
<text text-anchor="start" x="475.53" y="-73.73" font-family="Helvetica,sans-Serif" font-weight="bold" font-size="32.00" fill="#29235c">(!)</text>
<polygon fill="none" stroke="#29235c" stroke-width="2" points="183.72,-51.53 183.72,-293.53 517.72,-293.53 517.72,-51.53 183.72,-51.53"/>
</g>
<!-- flyway_schema_history -->
<g id="flyway_schema_history" class="node">
<title>flyway_schema_history</title>
<ellipse fill="none" stroke="black" stroke-width="0" cx="350.72" cy="-832.53" rx="340.24" ry="469.54"/>
<polygon fill="#1d71b8" stroke="transparent" points="112.72,-1102.53 112.72,-1162.53 589.72,-1162.53 589.72,-1102.53 112.72,-1102.53"/>
<polygon fill="none" stroke="#29235c" points="112.72,-1102.53 112.72,-1162.53 589.72,-1162.53 589.72,-1102.53 112.72,-1102.53"/>
<text text-anchor="start" x="123.62" y="-1123.73" font-family="Helvetica,sans-Serif" font-weight="bold" font-size="32.00" fill="#ffffff"> &#160;&#160;&#160;&#160;&#160;&#160;flyway_schema_history &#160;&#160;&#160;&#160;&#160;&#160;</text>
<polygon fill="#e7e2dd" stroke="transparent" points="112.72,-1042.53 112.72,-1102.53 589.72,-1102.53 589.72,-1042.53 112.72,-1042.53"/>
<polygon fill="none" stroke="#29235c" points="112.72,-1042.53 112.72,-1102.53 589.72,-1102.53 589.72,-1042.53 112.72,-1042.53"/>
<text text-anchor="start" x="123.72" y="-1063.73" font-family="Helvetica,sans-Serif" font-weight="bold" font-size="32.00" fill="#29235c">installed_rank</text>
<text text-anchor="start" x="321.09" y="-1063.73" font-family="Helvetica,sans-Serif" font-size="32.00" fill="#29235c"> &#160;&#160;&#160;</text>
<text text-anchor="start" x="505.85" y="-1063.73" font-family="Helvetica,sans-Serif" font-style="italic" font-size="32.00" fill="#29235c">int</text>
<text text-anchor="start" x="539.63" y="-1063.73" font-family="Helvetica,sans-Serif" font-size="32.00" fill="#29235c"> </text>
<text text-anchor="start" x="548.53" y="-1063.73" font-family="Helvetica,sans-Serif" font-weight="bold" font-size="32.00" fill="#29235c">(!)</text>
<polygon fill="#e7e2dd" stroke="transparent" points="112.72,-982.53 112.72,-1042.53 589.72,-1042.53 589.72,-982.53 112.72,-982.53"/>
<polygon fill="none" stroke="#29235c" points="112.72,-982.53 112.72,-1042.53 589.72,-1042.53 589.72,-982.53 112.72,-982.53"/>
<text text-anchor="start" x="123.72" y="-1002.73" font-family="Helvetica,sans-Serif" font-size="32.00" fill="#29235c">version &#160;&#160;&#160;</text>
<text text-anchor="start" x="415.17" y="-1003.73" font-family="Helvetica,sans-Serif" font-style="italic" font-size="32.00" fill="#29235c">varchar(50)</text>
<polygon fill="#e7e2dd" stroke="transparent" points="112.72,-922.53 112.72,-982.53 589.72,-982.53 589.72,-922.53 112.72,-922.53"/>
<polygon fill="none" stroke="#29235c" points="112.72,-922.53 112.72,-982.53 589.72,-982.53 589.72,-922.53 112.72,-922.53"/>
<text text-anchor="start" x="123.72" y="-942.73" font-family="Helvetica,sans-Serif" font-size="32.00" fill="#29235c">description &#160;&#160;&#160;</text>
<text text-anchor="start" x="358.29" y="-943.73" font-family="Helvetica,sans-Serif" font-style="italic" font-size="32.00" fill="#29235c">varchar(200)</text>
<text text-anchor="start" x="539.63" y="-943.73" font-family="Helvetica,sans-Serif" font-size="32.00" fill="#29235c"> </text>
<text text-anchor="start" x="548.53" y="-943.73" font-family="Helvetica,sans-Serif" font-weight="bold" font-size="32.00" fill="#29235c">(!)</text>
<polygon fill="#e7e2dd" stroke="transparent" points="112.72,-862.53 112.72,-922.53 589.72,-922.53 589.72,-862.53 112.72,-862.53"/>
<polygon fill="none" stroke="#29235c" points="112.72,-862.53 112.72,-922.53 589.72,-922.53 589.72,-862.53 112.72,-862.53"/>
<text text-anchor="start" x="123.72" y="-882.73" font-family="Helvetica,sans-Serif" font-size="32.00" fill="#29235c">type &#160;&#160;&#160;</text>
<text text-anchor="start" x="376.08" y="-883.73" font-family="Helvetica,sans-Serif" font-style="italic" font-size="32.00" fill="#29235c">varchar(20)</text>
<text text-anchor="start" x="539.63" y="-883.73" font-family="Helvetica,sans-Serif" font-size="32.00" fill="#29235c"> </text>
<text text-anchor="start" x="548.53" y="-883.73" font-family="Helvetica,sans-Serif" font-weight="bold" font-size="32.00" fill="#29235c">(!)</text>
<polygon fill="#e7e2dd" stroke="transparent" points="112.72,-802.53 112.72,-862.53 589.72,-862.53 589.72,-802.53 112.72,-802.53"/>
<polygon fill="none" stroke="#29235c" points="112.72,-802.53 112.72,-862.53 589.72,-862.53 589.72,-802.53 112.72,-802.53"/>
<text text-anchor="start" x="123.72" y="-822.73" font-family="Helvetica,sans-Serif" font-size="32.00" fill="#29235c">script &#160;&#160;&#160;</text>
<text text-anchor="start" x="340.5" y="-823.73" font-family="Helvetica,sans-Serif" font-style="italic" font-size="32.00" fill="#29235c">varchar(1000)</text>
<text text-anchor="start" x="539.63" y="-823.73" font-family="Helvetica,sans-Serif" font-size="32.00" fill="#29235c"> </text>
<text text-anchor="start" x="548.53" y="-823.73" font-family="Helvetica,sans-Serif" font-weight="bold" font-size="32.00" fill="#29235c">(!)</text>
<polygon fill="#e7e2dd" stroke="transparent" points="112.72,-742.53 112.72,-802.53 589.72,-802.53 589.72,-742.53 112.72,-742.53"/>
<polygon fill="none" stroke="#29235c" points="112.72,-742.53 112.72,-802.53 589.72,-802.53 589.72,-742.53 112.72,-742.53"/>
<text text-anchor="start" x="123.72" y="-762.73" font-family="Helvetica,sans-Serif" font-size="32.00" fill="#29235c">checksum &#160;&#160;&#160;</text>
<text text-anchor="start" x="544.94" y="-763.73" font-family="Helvetica,sans-Serif" font-style="italic" font-size="32.00" fill="#29235c">int</text>
<polygon fill="#e7e2dd" stroke="transparent" points="112.72,-682.53 112.72,-742.53 589.72,-742.53 589.72,-682.53 112.72,-682.53"/>
<polygon fill="none" stroke="#29235c" points="112.72,-682.53 112.72,-742.53 589.72,-742.53 589.72,-682.53 112.72,-682.53"/>
<text text-anchor="start" x="123.72" y="-702.73" font-family="Helvetica,sans-Serif" font-size="32.00" fill="#29235c">installed_by &#160;&#160;&#160;</text>
<text text-anchor="start" x="358.29" y="-703.73" font-family="Helvetica,sans-Serif" font-style="italic" font-size="32.00" fill="#29235c">varchar(100)</text>
<text text-anchor="start" x="539.63" y="-703.73" font-family="Helvetica,sans-Serif" font-size="32.00" fill="#29235c"> </text>
<text text-anchor="start" x="548.53" y="-703.73" font-family="Helvetica,sans-Serif" font-weight="bold" font-size="32.00" fill="#29235c">(!)</text>
<polygon fill="#e7e2dd" stroke="transparent" points="112.72,-622.53 112.72,-682.53 589.72,-682.53 589.72,-622.53 112.72,-622.53"/>
<polygon fill="none" stroke="#29235c" points="112.72,-622.53 112.72,-682.53 589.72,-682.53 589.72,-622.53 112.72,-622.53"/>
<text text-anchor="start" x="123.72" y="-642.73" font-family="Helvetica,sans-Serif" font-size="32.00" fill="#29235c">installed_on &#160;&#160;&#160;</text>
<text text-anchor="start" x="392.08" y="-643.73" font-family="Helvetica,sans-Serif" font-style="italic" font-size="32.00" fill="#29235c">timestamp</text>
<text text-anchor="start" x="539.63" y="-643.73" font-family="Helvetica,sans-Serif" font-size="32.00" fill="#29235c"> </text>
<text text-anchor="start" x="548.53" y="-643.73" font-family="Helvetica,sans-Serif" font-weight="bold" font-size="32.00" fill="#29235c">(!)</text>
<polygon fill="#e7e2dd" stroke="transparent" points="112.72,-562.53 112.72,-622.53 589.72,-622.53 589.72,-562.53 112.72,-562.53"/>
<polygon fill="none" stroke="#29235c" points="112.72,-562.53 112.72,-622.53 589.72,-622.53 589.72,-562.53 112.72,-562.53"/>
<text text-anchor="start" x="123.72" y="-582.73" font-family="Helvetica,sans-Serif" font-size="32.00" fill="#29235c">execution_time &#160;&#160;&#160;</text>
<text text-anchor="start" x="505.85" y="-583.73" font-family="Helvetica,sans-Serif" font-style="italic" font-size="32.00" fill="#29235c">int</text>
<text text-anchor="start" x="539.63" y="-583.73" font-family="Helvetica,sans-Serif" font-size="32.00" fill="#29235c"> </text>
<text text-anchor="start" x="548.53" y="-583.73" font-family="Helvetica,sans-Serif" font-weight="bold" font-size="32.00" fill="#29235c">(!)</text>
<polygon fill="#e7e2dd" stroke="transparent" points="112.72,-502.53 112.72,-562.53 589.72,-562.53 589.72,-502.53 112.72,-502.53"/>
<polygon fill="none" stroke="#29235c" points="112.72,-502.53 112.72,-562.53 589.72,-562.53 589.72,-502.53 112.72,-502.53"/>
<text text-anchor="start" x="123.72" y="-522.73" font-family="Helvetica,sans-Serif" font-size="32.00" fill="#29235c">success &#160;&#160;&#160;</text>
<text text-anchor="start" x="416.97" y="-523.73" font-family="Helvetica,sans-Serif" font-style="italic" font-size="32.00" fill="#29235c">tinyint(1)</text>
<text text-anchor="start" x="539.63" y="-523.73" font-family="Helvetica,sans-Serif" font-size="32.00" fill="#29235c"> </text>
<text text-anchor="start" x="548.53" y="-523.73" font-family="Helvetica,sans-Serif" font-weight="bold" font-size="32.00" fill="#29235c">(!)</text>
<polygon fill="none" stroke="#29235c" stroke-width="2" points="111.22,-501.53 111.22,-1163.53 590.22,-1163.53 590.22,-501.53 111.22,-501.53"/>
</g>
<!-- member -->
<g id="member" class="node">
<title>member</title>
<ellipse fill="none" stroke="black" stroke-width="0" cx="350.72" cy="-1577.53" rx="323.3" ry="257.27"/>
<polygon fill="#1d71b8" stroke="transparent" points="124.72,-1697.53 124.72,-1757.53 577.72,-1757.53 577.72,-1697.53 124.72,-1697.53"/>
<polygon fill="none" stroke="#29235c" points="124.72,-1697.53 124.72,-1757.53 577.72,-1757.53 577.72,-1697.53 124.72,-1697.53"/>
<text text-anchor="start" x="230.31" y="-1718.73" font-family="Helvetica,sans-Serif" font-weight="bold" font-size="32.00" fill="#ffffff"> &#160;&#160;&#160;&#160;&#160;&#160;member &#160;&#160;&#160;&#160;&#160;&#160;</text>
<polygon fill="#e7e2dd" stroke="transparent" points="124.72,-1637.53 124.72,-1697.53 577.72,-1697.53 577.72,-1637.53 124.72,-1637.53"/>
<polygon fill="none" stroke="#29235c" points="124.72,-1637.53 124.72,-1697.53 577.72,-1697.53 577.72,-1637.53 124.72,-1637.53"/>
<text text-anchor="start" x="135.72" y="-1658.73" font-family="Helvetica,sans-Serif" font-weight="bold" font-size="32.00" fill="#29235c">id</text>
<text text-anchor="start" x="160.61" y="-1658.73" font-family="Helvetica,sans-Serif" font-size="32.00" fill="#29235c"> &#160;&#160;&#160;</text>
<text text-anchor="start" x="451.17" y="-1658.73" font-family="Helvetica,sans-Serif" font-style="italic" font-size="32.00" fill="#29235c">bigint</text>
<text text-anchor="start" x="527.63" y="-1658.73" font-family="Helvetica,sans-Serif" font-size="32.00" fill="#29235c"> </text>
<text text-anchor="start" x="536.53" y="-1658.73" font-family="Helvetica,sans-Serif" font-weight="bold" font-size="32.00" fill="#29235c">(!)</text>
<polygon fill="#e7e2dd" stroke="transparent" points="124.72,-1577.53 124.72,-1637.53 577.72,-1637.53 577.72,-1577.53 124.72,-1577.53"/>
<polygon fill="none" stroke="#29235c" points="124.72,-1577.53 124.72,-1637.53 577.72,-1637.53 577.72,-1577.53 124.72,-1577.53"/>
<text text-anchor="start" x="135.72" y="-1597.73" font-family="Helvetica,sans-Serif" font-size="32.00" fill="#29235c">social_id &#160;&#160;&#160;</text>
<text text-anchor="start" x="346.29" y="-1598.73" font-family="Helvetica,sans-Serif" font-style="italic" font-size="32.00" fill="#29235c">varchar(255)</text>
<text text-anchor="start" x="527.63" y="-1598.73" font-family="Helvetica,sans-Serif" font-size="32.00" fill="#29235c"> </text>
<text text-anchor="start" x="536.53" y="-1598.73" font-family="Helvetica,sans-Serif" font-weight="bold" font-size="32.00" fill="#29235c">(!)</text>
<polygon fill="#e7e2dd" stroke="transparent" points="124.72,-1517.53 124.72,-1577.53 577.72,-1577.53 577.72,-1517.53 124.72,-1517.53"/>
<polygon fill="none" stroke="#29235c" points="124.72,-1517.53 124.72,-1577.53 577.72,-1577.53 577.72,-1517.53 124.72,-1517.53"/>
<text text-anchor="start" x="135.72" y="-1537.73" font-family="Helvetica,sans-Serif" font-size="32.00" fill="#29235c">nickname &#160;&#160;&#160;</text>
<text text-anchor="start" x="385.38" y="-1538.73" font-family="Helvetica,sans-Serif" font-style="italic" font-size="32.00" fill="#29235c">varchar(255)</text>
<polygon fill="#e7e2dd" stroke="transparent" points="124.72,-1457.53 124.72,-1517.53 577.72,-1517.53 577.72,-1457.53 124.72,-1457.53"/>
<polygon fill="none" stroke="#29235c" points="124.72,-1457.53 124.72,-1517.53 577.72,-1517.53 577.72,-1457.53 124.72,-1457.53"/>
<text text-anchor="start" x="135.34" y="-1477.73" font-family="Helvetica,sans-Serif" font-size="32.00" fill="#29235c">phone_number &#160;&#160;&#160;</text>
<text text-anchor="start" x="385.55" y="-1478.73" font-family="Helvetica,sans-Serif" font-style="italic" font-size="32.00" fill="#29235c">varchar(255)</text>
<polygon fill="#e7e2dd" stroke="transparent" points="124.72,-1397.53 124.72,-1457.53 577.72,-1457.53 577.72,-1397.53 124.72,-1397.53"/>
<polygon fill="none" stroke="#29235c" points="124.72,-1397.53 124.72,-1457.53 577.72,-1457.53 577.72,-1397.53 124.72,-1397.53"/>
<text text-anchor="start" x="135.72" y="-1417.73" font-family="Helvetica,sans-Serif" font-size="32.00" fill="#29235c">opt_in_marketing &#160;&#160;&#160;</text>
<text text-anchor="start" x="444.07" y="-1418.73" font-family="Helvetica,sans-Serif" font-style="italic" font-size="32.00" fill="#29235c">tinyint(1)</text>
<polygon fill="none" stroke="#29235c" stroke-width="2" points="123.22,-1396.53 123.22,-1758.53 578.22,-1758.53 578.22,-1396.53 123.22,-1396.53"/>
</g>
<!-- menu -->
<g id="menu" class="node">
<title>menu</title>
<ellipse fill="none" stroke="black" stroke-width="0" cx="350.72" cy="-2279.53" rx="280.94" ry="427.19"/>
<polygon fill="#1d71b8" stroke="transparent" points="154.72,-2519.53 154.72,-2579.53 547.72,-2579.53 547.72,-2519.53 154.72,-2519.53"/>
<polygon fill="none" stroke="#29235c" points="154.72,-2519.53 154.72,-2579.53 547.72,-2579.53 547.72,-2519.53 154.72,-2519.53"/>
<text text-anchor="start" x="248.97" y="-2540.73" font-family="Helvetica,sans-Serif" font-weight="bold" font-size="32.00" fill="#ffffff"> &#160;&#160;&#160;&#160;&#160;&#160;menu &#160;&#160;&#160;&#160;&#160;&#160;</text>
<polygon fill="#e7e2dd" stroke="transparent" points="154.72,-2459.53 154.72,-2519.53 547.72,-2519.53 547.72,-2459.53 154.72,-2459.53"/>
<polygon fill="none" stroke="#29235c" points="154.72,-2459.53 154.72,-2519.53 547.72,-2519.53 547.72,-2459.53 154.72,-2459.53"/>
<text text-anchor="start" x="165.72" y="-2480.73" font-family="Helvetica,sans-Serif" font-weight="bold" font-size="32.00" fill="#29235c">id</text>
<text text-anchor="start" x="190.61" y="-2480.73" font-family="Helvetica,sans-Serif" font-size="32.00" fill="#29235c"> &#160;&#160;&#160;</text>
<text text-anchor="start" x="421.17" y="-2480.73" font-family="Helvetica,sans-Serif" font-style="italic" font-size="32.00" fill="#29235c">bigint</text>
<text text-anchor="start" x="497.63" y="-2480.73" font-family="Helvetica,sans-Serif" font-size="32.00" fill="#29235c"> </text>
<text text-anchor="start" x="506.53" y="-2480.73" font-family="Helvetica,sans-Serif" font-weight="bold" font-size="32.00" fill="#29235c">(!)</text>
<polygon fill="#e7e2dd" stroke="transparent" points="154.72,-2399.53 154.72,-2459.53 547.72,-2459.53 547.72,-2399.53 154.72,-2399.53"/>
<polygon fill="none" stroke="#29235c" points="154.72,-2399.53 154.72,-2459.53 547.72,-2459.53 547.72,-2399.53 154.72,-2399.53"/>
<text text-anchor="start" x="165.72" y="-2419.73" font-family="Helvetica,sans-Serif" font-size="32.00" fill="#29235c">store_id &#160;&#160;&#160;</text>
<text text-anchor="start" x="421.17" y="-2420.73" font-family="Helvetica,sans-Serif" font-style="italic" font-size="32.00" fill="#29235c">bigint</text>
<text text-anchor="start" x="497.63" y="-2420.73" font-family="Helvetica,sans-Serif" font-size="32.00" fill="#29235c"> </text>
<text text-anchor="start" x="506.53" y="-2420.73" font-family="Helvetica,sans-Serif" font-weight="bold" font-size="32.00" fill="#29235c">(!)</text>
<polygon fill="#e7e2dd" stroke="transparent" points="154.72,-2339.53 154.72,-2399.53 547.72,-2399.53 547.72,-2339.53 154.72,-2339.53"/>
<polygon fill="none" stroke="#29235c" points="154.72,-2339.53 154.72,-2399.53 547.72,-2399.53 547.72,-2339.53 154.72,-2339.53"/>
<text text-anchor="start" x="165.72" y="-2359.73" font-family="Helvetica,sans-Serif" font-size="32.00" fill="#29235c">name &#160;&#160;&#160;</text>
<text text-anchor="start" x="316.29" y="-2360.73" font-family="Helvetica,sans-Serif" font-style="italic" font-size="32.00" fill="#29235c">varchar(255)</text>
<text text-anchor="start" x="497.63" y="-2360.73" font-family="Helvetica,sans-Serif" font-size="32.00" fill="#29235c"> </text>
<text text-anchor="start" x="506.53" y="-2360.73" font-family="Helvetica,sans-Serif" font-weight="bold" font-size="32.00" fill="#29235c">(!)</text>
<polygon fill="#e7e2dd" stroke="transparent" points="154.72,-2279.53 154.72,-2339.53 547.72,-2339.53 547.72,-2279.53 154.72,-2279.53"/>
<polygon fill="none" stroke="#29235c" points="154.72,-2279.53 154.72,-2339.53 547.72,-2339.53 547.72,-2279.53 154.72,-2279.53"/>
<text text-anchor="start" x="165.59" y="-2299.73" font-family="Helvetica,sans-Serif" font-size="32.00" fill="#29235c">description &#160;&#160;&#160;</text>
<text text-anchor="start" x="355.55" y="-2300.73" font-family="Helvetica,sans-Serif" font-style="italic" font-size="32.00" fill="#29235c">varchar(255)</text>
<polygon fill="#e7e2dd" stroke="transparent" points="154.72,-2219.53 154.72,-2279.53 547.72,-2279.53 547.72,-2219.53 154.72,-2219.53"/>
<polygon fill="none" stroke="#29235c" points="154.72,-2219.53 154.72,-2279.53 547.72,-2279.53 547.72,-2219.53 154.72,-2219.53"/>
<text text-anchor="start" x="165.72" y="-2239.73" font-family="Helvetica,sans-Serif" font-size="32.00" fill="#29235c">price &#160;&#160;&#160;</text>
<text text-anchor="start" x="463.85" y="-2240.73" font-family="Helvetica,sans-Serif" font-style="italic" font-size="32.00" fill="#29235c">int</text>
<text text-anchor="start" x="497.63" y="-2240.73" font-family="Helvetica,sans-Serif" font-size="32.00" fill="#29235c"> </text>
<text text-anchor="start" x="506.53" y="-2240.73" font-family="Helvetica,sans-Serif" font-weight="bold" font-size="32.00" fill="#29235c">(!)</text>
<polygon fill="#e7e2dd" stroke="transparent" points="154.72,-2159.53 154.72,-2219.53 547.72,-2219.53 547.72,-2159.53 154.72,-2159.53"/>
<polygon fill="none" stroke="#29235c" points="154.72,-2159.53 154.72,-2219.53 547.72,-2219.53 547.72,-2159.53 154.72,-2159.53"/>
<text text-anchor="start" x="165.72" y="-2179.73" font-family="Helvetica,sans-Serif" font-size="32.00" fill="#29235c">discount_price &#160;&#160;&#160;</text>
<text text-anchor="start" x="502.94" y="-2180.73" font-family="Helvetica,sans-Serif" font-style="italic" font-size="32.00" fill="#29235c">int</text>
<polygon fill="#e7e2dd" stroke="transparent" points="154.72,-2099.53 154.72,-2159.53 547.72,-2159.53 547.72,-2099.53 154.72,-2099.53"/>
<polygon fill="none" stroke="#29235c" points="154.72,-2099.53 154.72,-2159.53 547.72,-2159.53 547.72,-2099.53 154.72,-2099.53"/>
<text text-anchor="start" x="165.72" y="-2119.73" font-family="Helvetica,sans-Serif" font-size="32.00" fill="#29235c">start_time &#160;&#160;&#160;</text>
<text text-anchor="start" x="414.03" y="-2120.73" font-family="Helvetica,sans-Serif" font-style="italic" font-size="32.00" fill="#29235c">datetime</text>
<polygon fill="#e7e2dd" stroke="transparent" points="154.72,-2039.53 154.72,-2099.53 547.72,-2099.53 547.72,-2039.53 154.72,-2039.53"/>
<polygon fill="none" stroke="#29235c" points="154.72,-2039.53 154.72,-2099.53 547.72,-2099.53 547.72,-2039.53 154.72,-2039.53"/>
<text text-anchor="start" x="165.72" y="-2059.73" font-family="Helvetica,sans-Serif" font-size="32.00" fill="#29235c">end_time &#160;&#160;&#160;</text>
<text text-anchor="start" x="414.03" y="-2060.73" font-family="Helvetica,sans-Serif" font-style="italic" font-size="32.00" fill="#29235c">datetime</text>
<polygon fill="#e7e2dd" stroke="transparent" points="154.72,-1979.53 154.72,-2039.53 547.72,-2039.53 547.72,-1979.53 154.72,-1979.53"/>
<polygon fill="none" stroke="#29235c" points="154.72,-1979.53 154.72,-2039.53 547.72,-2039.53 547.72,-1979.53 154.72,-1979.53"/>
<text text-anchor="start" x="165.72" y="-1999.73" font-family="Helvetica,sans-Serif" font-size="32.00" fill="#29235c">image_url &#160;&#160;&#160;</text>
<text text-anchor="start" x="355.38" y="-2000.73" font-family="Helvetica,sans-Serif" font-style="italic" font-size="32.00" fill="#29235c">varchar(511)</text>
<polygon fill="none" stroke="#29235c" stroke-width="2" points="153.22,-1978.53 153.22,-2580.53 548.22,-2580.53 548.22,-1978.53 153.22,-1978.53"/>
</g>
<!-- store -->
<g id="store" class="node">
<title>store</title>
<ellipse fill="none" stroke="black" stroke-width="0" cx="350.72" cy="-3278.53" rx="350.95" ry="554.24"/>
<polygon fill="#1d71b8" stroke="transparent" points="104.72,-3608.53 104.72,-3668.53 596.72,-3668.53 596.72,-3608.53 104.72,-3608.53"/>
<polygon fill="none" stroke="#29235c" points="104.72,-3608.53 104.72,-3668.53 596.72,-3668.53 596.72,-3608.53 104.72,-3608.53"/>
<text text-anchor="start" x="252.91" y="-3629.73" font-family="Helvetica,sans-Serif" font-weight="bold" font-size="32.00" fill="#ffffff"> &#160;&#160;&#160;&#160;&#160;&#160;store &#160;&#160;&#160;&#160;&#160;&#160;</text>
<polygon fill="#e7e2dd" stroke="transparent" points="104.72,-3548.53 104.72,-3608.53 596.72,-3608.53 596.72,-3548.53 104.72,-3548.53"/>
<polygon fill="none" stroke="#29235c" points="104.72,-3548.53 104.72,-3608.53 596.72,-3608.53 596.72,-3548.53 104.72,-3548.53"/>
<text text-anchor="start" x="115.72" y="-3569.73" font-family="Helvetica,sans-Serif" font-weight="bold" font-size="32.00" fill="#29235c">id</text>
<text text-anchor="start" x="140.61" y="-3569.73" font-family="Helvetica,sans-Serif" font-size="32.00" fill="#29235c"> &#160;&#160;&#160;</text>
<text text-anchor="start" x="470.17" y="-3569.73" font-family="Helvetica,sans-Serif" font-style="italic" font-size="32.00" fill="#29235c">bigint</text>
<text text-anchor="start" x="546.63" y="-3569.73" font-family="Helvetica,sans-Serif" font-size="32.00" fill="#29235c"> </text>
<text text-anchor="start" x="555.53" y="-3569.73" font-family="Helvetica,sans-Serif" font-weight="bold" font-size="32.00" fill="#29235c">(!)</text>
<polygon fill="#e7e2dd" stroke="transparent" points="104.72,-3488.53 104.72,-3548.53 596.72,-3548.53 596.72,-3488.53 104.72,-3488.53"/>
<polygon fill="none" stroke="#29235c" points="104.72,-3488.53 104.72,-3548.53 596.72,-3548.53 596.72,-3488.53 104.72,-3488.53"/>
<text text-anchor="start" x="115.72" y="-3508.73" font-family="Helvetica,sans-Serif" font-size="32.00" fill="#29235c">name &#160;&#160;&#160;</text>
<text text-anchor="start" x="365.29" y="-3509.73" font-family="Helvetica,sans-Serif" font-style="italic" font-size="32.00" fill="#29235c">varchar(255)</text>
<text text-anchor="start" x="546.63" y="-3509.73" font-family="Helvetica,sans-Serif" font-size="32.00" fill="#29235c"> </text>
<text text-anchor="start" x="555.53" y="-3509.73" font-family="Helvetica,sans-Serif" font-weight="bold" font-size="32.00" fill="#29235c">(!)</text>
<polygon fill="#e7e2dd" stroke="transparent" points="104.72,-3428.53 104.72,-3488.53 596.72,-3488.53 596.72,-3428.53 104.72,-3428.53"/>
<polygon fill="none" stroke="#29235c" points="104.72,-3428.53 104.72,-3488.53 596.72,-3488.53 596.72,-3428.53 104.72,-3428.53"/>
<text text-anchor="start" x="115.72" y="-3448.73" font-family="Helvetica,sans-Serif" font-size="32.00" fill="#29235c">category &#160;&#160;&#160;</text>
<text text-anchor="start" x="365.29" y="-3449.73" font-family="Helvetica,sans-Serif" font-style="italic" font-size="32.00" fill="#29235c">varchar(255)</text>
<text text-anchor="start" x="546.63" y="-3449.73" font-family="Helvetica,sans-Serif" font-size="32.00" fill="#29235c"> </text>
<text text-anchor="start" x="555.53" y="-3449.73" font-family="Helvetica,sans-Serif" font-weight="bold" font-size="32.00" fill="#29235c">(!)</text>
<polygon fill="#e7e2dd" stroke="transparent" points="104.72,-3368.53 104.72,-3428.53 596.72,-3428.53 596.72,-3368.53 104.72,-3368.53"/>
<polygon fill="none" stroke="#29235c" points="104.72,-3368.53 104.72,-3428.53 596.72,-3428.53 596.72,-3368.53 104.72,-3368.53"/>
<text text-anchor="start" x="115.72" y="-3388.73" font-family="Helvetica,sans-Serif" font-size="32.00" fill="#29235c">introduction &#160;&#160;&#160;</text>
<text text-anchor="start" x="495.06" y="-3389.73" font-family="Helvetica,sans-Serif" font-style="italic" font-size="32.00" fill="#29235c">text</text>
<text text-anchor="start" x="546.63" y="-3389.73" font-family="Helvetica,sans-Serif" font-size="32.00" fill="#29235c"> </text>
<text text-anchor="start" x="555.53" y="-3389.73" font-family="Helvetica,sans-Serif" font-weight="bold" font-size="32.00" fill="#29235c">(!)</text>
<polygon fill="#e7e2dd" stroke="transparent" points="104.72,-3308.53 104.72,-3368.53 596.72,-3368.53 596.72,-3308.53 104.72,-3308.53"/>
<polygon fill="none" stroke="#29235c" points="104.72,-3308.53 104.72,-3368.53 596.72,-3368.53 596.72,-3308.53 104.72,-3308.53"/>
<text text-anchor="start" x="115.34" y="-3328.73" font-family="Helvetica,sans-Serif" font-size="32.00" fill="#29235c">phone_number &#160;&#160;&#160;</text>
<text text-anchor="start" x="365.51" y="-3329.73" font-family="Helvetica,sans-Serif" font-style="italic" font-size="32.00" fill="#29235c">varchar(255)</text>
<text text-anchor="start" x="546.85" y="-3329.73" font-family="Helvetica,sans-Serif" font-size="32.00" fill="#29235c"> </text>
<text text-anchor="start" x="555.74" y="-3329.73" font-family="Helvetica,sans-Serif" font-weight="bold" font-size="32.00" fill="#29235c">(!)</text>
<polygon fill="#e7e2dd" stroke="transparent" points="104.72,-3248.53 104.72,-3308.53 596.72,-3308.53 596.72,-3248.53 104.72,-3248.53"/>
<polygon fill="none" stroke="#29235c" points="104.72,-3248.53 104.72,-3308.53 596.72,-3308.53 596.72,-3248.53 104.72,-3248.53"/>
<text text-anchor="start" x="115.72" y="-3268.73" font-family="Helvetica,sans-Serif" font-size="32.00" fill="#29235c">interest_area &#160;&#160;&#160;</text>
<text text-anchor="start" x="383.08" y="-3269.73" font-family="Helvetica,sans-Serif" font-style="italic" font-size="32.00" fill="#29235c">varchar(50)</text>
<text text-anchor="start" x="546.63" y="-3269.73" font-family="Helvetica,sans-Serif" font-size="32.00" fill="#29235c"> </text>
<text text-anchor="start" x="555.53" y="-3269.73" font-family="Helvetica,sans-Serif" font-weight="bold" font-size="32.00" fill="#29235c">(!)</text>
<polygon fill="#e7e2dd" stroke="transparent" points="104.72,-3188.53 104.72,-3248.53 596.72,-3248.53 596.72,-3188.53 104.72,-3188.53"/>
<polygon fill="none" stroke="#29235c" points="104.72,-3188.53 104.72,-3248.53 596.72,-3248.53 596.72,-3188.53 104.72,-3188.53"/>
<text text-anchor="start" x="115.72" y="-3208.73" font-family="Helvetica,sans-Serif" font-size="32.00" fill="#29235c">address &#160;&#160;&#160;</text>
<text text-anchor="start" x="365.29" y="-3209.73" font-family="Helvetica,sans-Serif" font-style="italic" font-size="32.00" fill="#29235c">varchar(255)</text>
<text text-anchor="start" x="546.63" y="-3209.73" font-family="Helvetica,sans-Serif" font-size="32.00" fill="#29235c"> </text>
<text text-anchor="start" x="555.53" y="-3209.73" font-family="Helvetica,sans-Serif" font-weight="bold" font-size="32.00" fill="#29235c">(!)</text>
<polygon fill="#e7e2dd" stroke="transparent" points="104.72,-3128.53 104.72,-3188.53 596.72,-3188.53 596.72,-3128.53 104.72,-3128.53"/>
<polygon fill="none" stroke="#29235c" points="104.72,-3128.53 104.72,-3188.53 596.72,-3188.53 596.72,-3128.53 104.72,-3128.53"/>
<text text-anchor="start" x="115.72" y="-3148.73" font-family="Helvetica,sans-Serif" font-size="32.00" fill="#29235c">latitude &#160;&#160;&#160;</text>
<text text-anchor="start" x="450.59" y="-3149.73" font-family="Helvetica,sans-Serif" font-style="italic" font-size="32.00" fill="#29235c">double</text>
<text text-anchor="start" x="546.63" y="-3149.73" font-family="Helvetica,sans-Serif" font-size="32.00" fill="#29235c"> </text>
<text text-anchor="start" x="555.53" y="-3149.73" font-family="Helvetica,sans-Serif" font-weight="bold" font-size="32.00" fill="#29235c">(!)</text>
<polygon fill="#e7e2dd" stroke="transparent" points="104.72,-3068.53 104.72,-3128.53 596.72,-3128.53 596.72,-3068.53 104.72,-3068.53"/>
<polygon fill="none" stroke="#29235c" points="104.72,-3068.53 104.72,-3128.53 596.72,-3128.53 596.72,-3068.53 104.72,-3068.53"/>
<text text-anchor="start" x="115.72" y="-3088.73" font-family="Helvetica,sans-Serif" font-size="32.00" fill="#29235c">longitude &#160;&#160;&#160;</text>
<text text-anchor="start" x="450.59" y="-3089.73" font-family="Helvetica,sans-Serif" font-style="italic" font-size="32.00" fill="#29235c">double</text>
<text text-anchor="start" x="546.63" y="-3089.73" font-family="Helvetica,sans-Serif" font-size="32.00" fill="#29235c"> </text>
<text text-anchor="start" x="555.53" y="-3089.73" font-family="Helvetica,sans-Serif" font-weight="bold" font-size="32.00" fill="#29235c">(!)</text>
<polygon fill="#e7e2dd" stroke="transparent" points="104.72,-3008.53 104.72,-3068.53 596.72,-3068.53 596.72,-3008.53 104.72,-3008.53"/>
<polygon fill="none" stroke="#29235c" points="104.72,-3008.53 104.72,-3068.53 596.72,-3068.53 596.72,-3008.53 104.72,-3008.53"/>
<text text-anchor="start" x="115.72" y="-3028.73" font-family="Helvetica,sans-Serif" font-size="32.00" fill="#29235c">open_time &#160;&#160;&#160;</text>
<text text-anchor="start" x="486.2" y="-3029.73" font-family="Helvetica,sans-Serif" font-style="italic" font-size="32.00" fill="#29235c">time</text>
<text text-anchor="start" x="546.63" y="-3029.73" font-family="Helvetica,sans-Serif" font-size="32.00" fill="#29235c"> </text>
<text text-anchor="start" x="555.53" y="-3029.73" font-family="Helvetica,sans-Serif" font-weight="bold" font-size="32.00" fill="#29235c">(!)</text>
<polygon fill="#e7e2dd" stroke="transparent" points="104.72,-2948.53 104.72,-3008.53 596.72,-3008.53 596.72,-2948.53 104.72,-2948.53"/>
<polygon fill="none" stroke="#29235c" points="104.72,-2948.53 104.72,-3008.53 596.72,-3008.53 596.72,-2948.53 104.72,-2948.53"/>
<text text-anchor="start" x="115.72" y="-2968.73" font-family="Helvetica,sans-Serif" font-size="32.00" fill="#29235c">close_time &#160;&#160;&#160;</text>
<text text-anchor="start" x="486.2" y="-2969.73" font-family="Helvetica,sans-Serif" font-style="italic" font-size="32.00" fill="#29235c">time</text>
<text text-anchor="start" x="546.63" y="-2969.73" font-family="Helvetica,sans-Serif" font-size="32.00" fill="#29235c"> </text>
<text text-anchor="start" x="555.53" y="-2969.73" font-family="Helvetica,sans-Serif" font-weight="bold" font-size="32.00" fill="#29235c">(!)</text>
<polygon fill="#e7e2dd" stroke="transparent" points="104.72,-2888.53 104.72,-2948.53 596.72,-2948.53 596.72,-2888.53 104.72,-2888.53"/>
<polygon fill="none" stroke="#29235c" points="104.72,-2888.53 104.72,-2948.53 596.72,-2948.53 596.72,-2888.53 104.72,-2888.53"/>
<text text-anchor="start" x="115.72" y="-2908.73" font-family="Helvetica,sans-Serif" font-size="32.00" fill="#29235c">image_url &#160;&#160;&#160;</text>
<text text-anchor="start" x="404.38" y="-2909.73" font-family="Helvetica,sans-Serif" font-style="italic" font-size="32.00" fill="#29235c">varchar(511)</text>
<polygon fill="none" stroke="#29235c" stroke-width="2" points="103.72,-2887.53 103.72,-3669.53 597.72,-3669.53 597.72,-2887.53 103.72,-2887.53"/>
</g>
</g>
</svg>
