<?xml version="1.0" encoding="UTF-8" standalone="no"?>
<!DOCTYPE svg PUBLIC "-//W3C//DTD SVG 1.1//EN"
 "http://www.w3.org/Graphics/SVG/1.1/DTD/svg11.dtd">
<!-- Generated by graphviz version 2.47.0 (20210316.0004)
 -->
<!-- Title: dbml Pages: 1 -->
<svg width="2064pt" height="3734pt"
 viewBox="0.00 0.00 2064.14 3733.89" xmlns="http://www.w3.org/2000/svg" xmlns:xlink="http://www.w3.org/1999/xlink">
<g id="graph0" class="graph" transform="scale(1 1) rotate(0) translate(4 3729.89)">
<title>dbml</title>
<!-- cheer -->
<g id="cheer" class="node">
<title>cheer</title>
<ellipse fill="none" stroke="black" stroke-width="0" cx="1253.64" cy="-1146.37" rx="281.36" ry="342.48"/>
<polygon fill="#1d71b8" stroke="transparent" points="1056.64,-1326.37 1056.64,-1386.37 1450.64,-1386.37 1450.64,-1326.37 1056.64,-1326.37"/>
<polygon fill="none" stroke="#29235c" points="1056.64,-1326.37 1056.64,-1386.37 1450.64,-1386.37 1450.64,-1326.37 1056.64,-1326.37"/>
<text text-anchor="start" x="1151.38" y="-1347.57" font-family="Helvetica,sans-Serif" font-weight="bold" font-size="32.00" fill="#ffffff"> &#160;&#160;&#160;&#160;&#160;&#160;cheer &#160;&#160;&#160;&#160;&#160;&#160;</text>
<polygon fill="#e7e2dd" stroke="transparent" points="1056.64,-1266.37 1056.64,-1326.37 1450.64,-1326.37 1450.64,-1266.37 1056.64,-1266.37"/>
<polygon fill="none" stroke="#29235c" points="1056.64,-1266.37 1056.64,-1326.37 1450.64,-1326.37 1450.64,-1266.37 1056.64,-1266.37"/>
<text text-anchor="start" x="1067.64" y="-1287.57" font-family="Helvetica,sans-Serif" font-weight="bold" font-size="32.00" fill="#29235c">id</text>
<text text-anchor="start" x="1092.53" y="-1287.57" font-family="Helvetica,sans-Serif" font-size="32.00" fill="#29235c"> &#160;&#160;&#160;</text>
<text text-anchor="start" x="1324.09" y="-1287.57" font-family="Helvetica,sans-Serif" font-style="italic" font-size="32.00" fill="#29235c">bigint</text>
<text text-anchor="start" x="1400.55" y="-1287.57" font-family="Helvetica,sans-Serif" font-size="32.00" fill="#29235c"> </text>
<text text-anchor="start" x="1409.44" y="-1287.57" font-family="Helvetica,sans-Serif" font-weight="bold" font-size="32.00" fill="#29235c">(!)</text>
<polygon fill="#e7e2dd" stroke="transparent" points="1056.64,-1206.37 1056.64,-1266.37 1450.64,-1266.37 1450.64,-1206.37 1056.64,-1206.37"/>
<polygon fill="none" stroke="#29235c" points="1056.64,-1206.37 1056.64,-1266.37 1450.64,-1266.37 1450.64,-1206.37 1056.64,-1206.37"/>
<text text-anchor="start" x="1067.64" y="-1226.57" font-family="Helvetica,sans-Serif" font-size="32.00" fill="#29235c">member_id &#160;&#160;&#160;</text>
<text text-anchor="start" x="1324.09" y="-1227.57" font-family="Helvetica,sans-Serif" font-style="italic" font-size="32.00" fill="#29235c">bigint</text>
<text text-anchor="start" x="1400.55" y="-1227.57" font-family="Helvetica,sans-Serif" font-size="32.00" fill="#29235c"> </text>
<text text-anchor="start" x="1409.44" y="-1227.57" font-family="Helvetica,sans-Serif" font-weight="bold" font-size="32.00" fill="#29235c">(!)</text>
<polygon fill="#e7e2dd" stroke="transparent" points="1056.64,-1146.37 1056.64,-1206.37 1450.64,-1206.37 1450.64,-1146.37 1056.64,-1146.37"/>
<polygon fill="none" stroke="#29235c" points="1056.64,-1146.37 1056.64,-1206.37 1450.64,-1206.37 1450.64,-1146.37 1056.64,-1146.37"/>
<text text-anchor="start" x="1067.64" y="-1166.57" font-family="Helvetica,sans-Serif" font-size="32.00" fill="#29235c">store_id &#160;&#160;&#160;</text>
<text text-anchor="start" x="1324.09" y="-1167.57" font-family="Helvetica,sans-Serif" font-style="italic" font-size="32.00" fill="#29235c">bigint</text>
<text text-anchor="start" x="1400.55" y="-1167.57" font-family="Helvetica,sans-Serif" font-size="32.00" fill="#29235c"> </text>
<text text-anchor="start" x="1409.44" y="-1167.57" font-family="Helvetica,sans-Serif" font-weight="bold" font-size="32.00" fill="#29235c">(!)</text>
<polygon fill="#e7e2dd" stroke="transparent" points="1056.64,-1086.37 1056.64,-1146.37 1450.64,-1146.37 1450.64,-1086.37 1056.64,-1086.37"/>
<polygon fill="none" stroke="#29235c" points="1056.64,-1086.37 1056.64,-1146.37 1450.64,-1146.37 1450.64,-1086.37 1056.64,-1086.37"/>
<text text-anchor="start" x="1067.64" y="-1106.57" font-family="Helvetica,sans-Serif" font-size="32.00" fill="#29235c">description &#160;&#160;&#160;</text>
<text text-anchor="start" x="1348.97" y="-1107.57" font-family="Helvetica,sans-Serif" font-style="italic" font-size="32.00" fill="#29235c">text</text>
<text text-anchor="start" x="1400.55" y="-1107.57" font-family="Helvetica,sans-Serif" font-size="32.00" fill="#29235c"> </text>
<text text-anchor="start" x="1409.44" y="-1107.57" font-family="Helvetica,sans-Serif" font-weight="bold" font-size="32.00" fill="#29235c">(!)</text>
<polygon fill="#e7e2dd" stroke="transparent" points="1056.64,-1026.37 1056.64,-1086.37 1450.64,-1086.37 1450.64,-1026.37 1056.64,-1026.37"/>
<polygon fill="none" stroke="#29235c" points="1056.64,-1026.37 1056.64,-1086.37 1450.64,-1086.37 1450.64,-1026.37 1056.64,-1026.37"/>
<text text-anchor="start" x="1067.64" y="-1046.57" font-family="Helvetica,sans-Serif" font-size="32.00" fill="#29235c">image_key &#160;&#160;&#160;</text>
<text text-anchor="start" x="1258.47" y="-1047.57" font-family="Helvetica,sans-Serif" font-style="italic" font-size="32.00" fill="#29235c">varchar(511)</text>
<polygon fill="#e7e2dd" stroke="transparent" points="1056.64,-966.37 1056.64,-1026.37 1450.64,-1026.37 1450.64,-966.37 1056.64,-966.37"/>
<polygon fill="none" stroke="#29235c" points="1056.64,-966.37 1056.64,-1026.37 1450.64,-1026.37 1450.64,-966.37 1056.64,-966.37"/>
<text text-anchor="start" x="1067.64" y="-986.57" font-family="Helvetica,sans-Serif" font-size="32.00" fill="#29235c">is_admin &#160;&#160;&#160;</text>
<text text-anchor="start" x="1277.89" y="-987.57" font-family="Helvetica,sans-Serif" font-style="italic" font-size="32.00" fill="#29235c">tinyint(1)</text>
<text text-anchor="start" x="1400.55" y="-987.57" font-family="Helvetica,sans-Serif" font-size="32.00" fill="#29235c"> </text>
<text text-anchor="start" x="1409.44" y="-987.57" font-family="Helvetica,sans-Serif" font-weight="bold" font-size="32.00" fill="#29235c">(!)</text>
<polygon fill="#e7e2dd" stroke="transparent" points="1056.64,-906.37 1056.64,-966.37 1450.64,-966.37 1450.64,-906.37 1056.64,-906.37"/>
<polygon fill="none" stroke="#29235c" points="1056.64,-906.37 1056.64,-966.37 1450.64,-966.37 1450.64,-906.37 1056.64,-906.37"/>
<text text-anchor="start" x="1067.27" y="-926.57" font-family="Helvetica,sans-Serif" font-size="32.00" fill="#29235c">created_at &#160;&#160;&#160;</text>
<text text-anchor="start" x="1253.31" y="-927.57" font-family="Helvetica,sans-Serif" font-style="italic" font-size="32.00" fill="#29235c">timestamp</text>
<text text-anchor="start" x="1400.87" y="-927.57" font-family="Helvetica,sans-Serif" font-size="32.00" fill="#29235c"> </text>
<text text-anchor="start" x="1409.76" y="-927.57" font-family="Helvetica,sans-Serif" font-weight="bold" font-size="32.00" fill="#29235c">(!)</text>
<polygon fill="none" stroke="#29235c" stroke-width="2" points="1055.64,-905.37 1055.64,-1387.37 1451.64,-1387.37 1451.64,-905.37 1055.64,-905.37"/>
</g>
<!-- cheer_tag -->
<g id="cheer_tag" class="node">
<title>cheer_tag</title>
<ellipse fill="none" stroke="black" stroke-width="0" cx="1813.6" cy="-1266.37" rx="242.58" ry="172.57"/>
<polygon fill="#1d71b8" stroke="transparent" points="1644.6,-1326.37 1644.6,-1386.37 1983.6,-1386.37 1983.6,-1326.37 1644.6,-1326.37"/>
<polygon fill="none" stroke="#29235c" points="1644.6,-1326.37 1644.6,-1386.37 1983.6,-1386.37 1983.6,-1326.37 1644.6,-1326.37"/>
<text text-anchor="start" x="1680.72" y="-1347.57" font-family="Helvetica,sans-Serif" font-weight="bold" font-size="32.00" fill="#ffffff"> &#160;&#160;&#160;&#160;&#160;&#160;cheer_tag &#160;&#160;&#160;&#160;&#160;&#160;</text>
<polygon fill="#e7e2dd" stroke="transparent" points="1644.6,-1266.37 1644.6,-1326.37 1983.6,-1326.37 1983.6,-1266.37 1644.6,-1266.37"/>
<polygon fill="none" stroke="#29235c" points="1644.6,-1266.37 1644.6,-1326.37 1983.6,-1326.37 1983.6,-1266.37 1644.6,-1266.37"/>
<text text-anchor="start" x="1655.6" y="-1287.57" font-family="Helvetica,sans-Serif" font-weight="bold" font-size="32.00" fill="#29235c">id</text>
<text text-anchor="start" x="1680.49" y="-1287.57" font-family="Helvetica,sans-Serif" font-size="32.00" fill="#29235c"> &#160;&#160;&#160;</text>
<text text-anchor="start" x="1857.05" y="-1287.57" font-family="Helvetica,sans-Serif" font-style="italic" font-size="32.00" fill="#29235c">bigint</text>
<text text-anchor="start" x="1933.51" y="-1287.57" font-family="Helvetica,sans-Serif" font-size="32.00" fill="#29235c"> </text>
<text text-anchor="start" x="1942.41" y="-1287.57" font-family="Helvetica,sans-Serif" font-weight="bold" font-size="32.00" fill="#29235c">(!)</text>
<polygon fill="#e7e2dd" stroke="transparent" points="1644.6,-1206.37 1644.6,-1266.37 1983.6,-1266.37 1983.6,-1206.37 1644.6,-1206.37"/>
<polygon fill="none" stroke="#29235c" points="1644.6,-1206.37 1644.6,-1266.37 1983.6,-1266.37 1983.6,-1206.37 1644.6,-1206.37"/>
<text text-anchor="start" x="1655.6" y="-1226.57" font-family="Helvetica,sans-Serif" font-size="32.00" fill="#29235c">cheer_id &#160;&#160;&#160;</text>
<text text-anchor="start" x="1857.05" y="-1227.57" font-family="Helvetica,sans-Serif" font-style="italic" font-size="32.00" fill="#29235c">bigint</text>
<text text-anchor="start" x="1933.51" y="-1227.57" font-family="Helvetica,sans-Serif" font-size="32.00" fill="#29235c"> </text>
<text text-anchor="start" x="1942.41" y="-1227.57" font-family="Helvetica,sans-Serif" font-weight="bold" font-size="32.00" fill="#29235c">(!)</text>
<polygon fill="#e7e2dd" stroke="transparent" points="1644.6,-1146.37 1644.6,-1206.37 1983.6,-1206.37 1983.6,-1146.37 1644.6,-1146.37"/>
<polygon fill="none" stroke="#29235c" points="1644.6,-1146.37 1644.6,-1206.37 1983.6,-1206.37 1983.6,-1146.37 1644.6,-1146.37"/>
<text text-anchor="start" x="1655.31" y="-1166.57" font-family="Helvetica,sans-Serif" font-size="32.00" fill="#29235c">name &#160;&#160;&#160;</text>
<text text-anchor="start" x="1770.28" y="-1167.57" font-family="Helvetica,sans-Serif" font-style="italic" font-size="32.00" fill="#29235c">varchar(63)</text>
<text text-anchor="start" x="1933.84" y="-1167.57" font-family="Helvetica,sans-Serif" font-size="32.00" fill="#29235c"> </text>
<text text-anchor="start" x="1942.73" y="-1167.57" font-family="Helvetica,sans-Serif" font-weight="bold" font-size="32.00" fill="#29235c">(!)</text>
<polygon fill="none" stroke="#29235c" stroke-width="2" points="1643.1,-1145.37 1643.1,-1387.37 1984.1,-1387.37 1984.1,-1145.37 1643.1,-1145.37"/>
</g>
<!-- cheer&#45;&gt;cheer_tag -->
<!-- cheer&#45;&gt;cheer_tag -->
<g id="edge6" class="edge">
<title>cheer:e&#45;&gt;cheer_tag:w</title>
<path fill="none" stroke="#29235c" stroke-width="3" d="M1451.64,-1296.37C1537.53,-1296.37 1553.07,-1240.97 1633.47,-1236.64"/>
<polygon fill="#29235c" stroke="#29235c" stroke-width="3" points="1633.7,-1240.13 1643.6,-1236.37 1633.52,-1233.14 1633.7,-1240.13"/>
<text text-anchor="middle" x="1637.38" y="-1245.97" font-family="Helvetica,sans-Serif" font-size="32.00" fill="#29235c">*</text>
<text text-anchor="middle" x="1442.74" y="-1305.97" font-family="Helvetica,sans-Serif" font-size="32.00" fill="#29235c">1</text>
</g>
<!-- flyway_schema_history -->
<g id="flyway_schema_history" class="node">
<title>flyway_schema_history</title>
<ellipse fill="none" stroke="black" stroke-width="0" cx="468.1" cy="-2299.37" rx="340.24" ry="469.54"/>
<polygon fill="#1d71b8" stroke="transparent" points="230.1,-2569.37 230.1,-2629.37 707.1,-2629.37 707.1,-2569.37 230.1,-2569.37"/>
<polygon fill="none" stroke="#29235c" points="230.1,-2569.37 230.1,-2629.37 707.1,-2629.37 707.1,-2569.37 230.1,-2569.37"/>
<text text-anchor="start" x="241" y="-2590.57" font-family="Helvetica,sans-Serif" font-weight="bold" font-size="32.00" fill="#ffffff"> &#160;&#160;&#160;&#160;&#160;&#160;flyway_schema_history &#160;&#160;&#160;&#160;&#160;&#160;</text>
<polygon fill="#e7e2dd" stroke="transparent" points="230.1,-2509.37 230.1,-2569.37 707.1,-2569.37 707.1,-2509.37 230.1,-2509.37"/>
<polygon fill="none" stroke="#29235c" points="230.1,-2509.37 230.1,-2569.37 707.1,-2569.37 707.1,-2509.37 230.1,-2509.37"/>
<text text-anchor="start" x="241.1" y="-2530.57" font-family="Helvetica,sans-Serif" font-weight="bold" font-size="32.00" fill="#29235c">installed_rank</text>
<text text-anchor="start" x="438.47" y="-2530.57" font-family="Helvetica,sans-Serif" font-size="32.00" fill="#29235c"> &#160;&#160;&#160;</text>
<text text-anchor="start" x="623.23" y="-2530.57" font-family="Helvetica,sans-Serif" font-style="italic" font-size="32.00" fill="#29235c">int</text>
<text text-anchor="start" x="657.01" y="-2530.57" font-family="Helvetica,sans-Serif" font-size="32.00" fill="#29235c"> </text>
<text text-anchor="start" x="665.91" y="-2530.57" font-family="Helvetica,sans-Serif" font-weight="bold" font-size="32.00" fill="#29235c">(!)</text>
<polygon fill="#e7e2dd" stroke="transparent" points="230.1,-2449.37 230.1,-2509.37 707.1,-2509.37 707.1,-2449.37 230.1,-2449.37"/>
<polygon fill="none" stroke="#29235c" points="230.1,-2449.37 230.1,-2509.37 707.1,-2509.37 707.1,-2449.37 230.1,-2449.37"/>
<text text-anchor="start" x="241.1" y="-2469.57" font-family="Helvetica,sans-Serif" font-size="32.00" fill="#29235c">version &#160;&#160;&#160;</text>
<text text-anchor="start" x="532.55" y="-2470.57" font-family="Helvetica,sans-Serif" font-style="italic" font-size="32.00" fill="#29235c">varchar(50)</text>
<polygon fill="#e7e2dd" stroke="transparent" points="230.1,-2389.37 230.1,-2449.37 707.1,-2449.37 707.1,-2389.37 230.1,-2389.37"/>
<polygon fill="none" stroke="#29235c" points="230.1,-2389.37 230.1,-2449.37 707.1,-2449.37 707.1,-2389.37 230.1,-2389.37"/>
<text text-anchor="start" x="241.1" y="-2409.57" font-family="Helvetica,sans-Serif" font-size="32.00" fill="#29235c">description &#160;&#160;&#160;</text>
<text text-anchor="start" x="475.67" y="-2410.57" font-family="Helvetica,sans-Serif" font-style="italic" font-size="32.00" fill="#29235c">varchar(200)</text>
<text text-anchor="start" x="657.01" y="-2410.57" font-family="Helvetica,sans-Serif" font-size="32.00" fill="#29235c"> </text>
<text text-anchor="start" x="665.91" y="-2410.57" font-family="Helvetica,sans-Serif" font-weight="bold" font-size="32.00" fill="#29235c">(!)</text>
<polygon fill="#e7e2dd" stroke="transparent" points="230.1,-2329.37 230.1,-2389.37 707.1,-2389.37 707.1,-2329.37 230.1,-2329.37"/>
<polygon fill="none" stroke="#29235c" points="230.1,-2329.37 230.1,-2389.37 707.1,-2389.37 707.1,-2329.37 230.1,-2329.37"/>
<text text-anchor="start" x="241.1" y="-2349.57" font-family="Helvetica,sans-Serif" font-size="32.00" fill="#29235c">type &#160;&#160;&#160;</text>
<text text-anchor="start" x="493.46" y="-2350.57" font-family="Helvetica,sans-Serif" font-style="italic" font-size="32.00" fill="#29235c">varchar(20)</text>
<text text-anchor="start" x="657.01" y="-2350.57" font-family="Helvetica,sans-Serif" font-size="32.00" fill="#29235c"> </text>
<text text-anchor="start" x="665.91" y="-2350.57" font-family="Helvetica,sans-Serif" font-weight="bold" font-size="32.00" fill="#29235c">(!)</text>
<polygon fill="#e7e2dd" stroke="transparent" points="230.1,-2269.37 230.1,-2329.37 707.1,-2329.37 707.1,-2269.37 230.1,-2269.37"/>
<polygon fill="none" stroke="#29235c" points="230.1,-2269.37 230.1,-2329.37 707.1,-2329.37 707.1,-2269.37 230.1,-2269.37"/>
<text text-anchor="start" x="241.1" y="-2289.57" font-family="Helvetica,sans-Serif" font-size="32.00" fill="#29235c">script &#160;&#160;&#160;</text>
<text text-anchor="start" x="457.88" y="-2290.57" font-family="Helvetica,sans-Serif" font-style="italic" font-size="32.00" fill="#29235c">varchar(1000)</text>
<text text-anchor="start" x="657.01" y="-2290.57" font-family="Helvetica,sans-Serif" font-size="32.00" fill="#29235c"> </text>
<text text-anchor="start" x="665.91" y="-2290.57" font-family="Helvetica,sans-Serif" font-weight="bold" font-size="32.00" fill="#29235c">(!)</text>
<polygon fill="#e7e2dd" stroke="transparent" points="230.1,-2209.37 230.1,-2269.37 707.1,-2269.37 707.1,-2209.37 230.1,-2209.37"/>
<polygon fill="none" stroke="#29235c" points="230.1,-2209.37 230.1,-2269.37 707.1,-2269.37 707.1,-2209.37 230.1,-2209.37"/>
<text text-anchor="start" x="241.1" y="-2229.57" font-family="Helvetica,sans-Serif" font-size="32.00" fill="#29235c">checksum &#160;&#160;&#160;</text>
<text text-anchor="start" x="662.32" y="-2230.57" font-family="Helvetica,sans-Serif" font-style="italic" font-size="32.00" fill="#29235c">int</text>
<polygon fill="#e7e2dd" stroke="transparent" points="230.1,-2149.37 230.1,-2209.37 707.1,-2209.37 707.1,-2149.37 230.1,-2149.37"/>
<polygon fill="none" stroke="#29235c" points="230.1,-2149.37 230.1,-2209.37 707.1,-2209.37 707.1,-2149.37 230.1,-2149.37"/>
<text text-anchor="start" x="241.1" y="-2169.57" font-family="Helvetica,sans-Serif" font-size="32.00" fill="#29235c">installed_by &#160;&#160;&#160;</text>
<text text-anchor="start" x="475.67" y="-2170.57" font-family="Helvetica,sans-Serif" font-style="italic" font-size="32.00" fill="#29235c">varchar(100)</text>
<text text-anchor="start" x="657.01" y="-2170.57" font-family="Helvetica,sans-Serif" font-size="32.00" fill="#29235c"> </text>
<text text-anchor="start" x="665.91" y="-2170.57" font-family="Helvetica,sans-Serif" font-weight="bold" font-size="32.00" fill="#29235c">(!)</text>
<polygon fill="#e7e2dd" stroke="transparent" points="230.1,-2089.37 230.1,-2149.37 707.1,-2149.37 707.1,-2089.37 230.1,-2089.37"/>
<polygon fill="none" stroke="#29235c" points="230.1,-2089.37 230.1,-2149.37 707.1,-2149.37 707.1,-2089.37 230.1,-2089.37"/>
<text text-anchor="start" x="241.1" y="-2109.57" font-family="Helvetica,sans-Serif" font-size="32.00" fill="#29235c">installed_on &#160;&#160;&#160;</text>
<text text-anchor="start" x="509.46" y="-2110.57" font-family="Helvetica,sans-Serif" font-style="italic" font-size="32.00" fill="#29235c">timestamp</text>
<text text-anchor="start" x="657.01" y="-2110.57" font-family="Helvetica,sans-Serif" font-size="32.00" fill="#29235c"> </text>
<text text-anchor="start" x="665.91" y="-2110.57" font-family="Helvetica,sans-Serif" font-weight="bold" font-size="32.00" fill="#29235c">(!)</text>
<polygon fill="#e7e2dd" stroke="transparent" points="230.1,-2029.37 230.1,-2089.37 707.1,-2089.37 707.1,-2029.37 230.1,-2029.37"/>
<polygon fill="none" stroke="#29235c" points="230.1,-2029.37 230.1,-2089.37 707.1,-2089.37 707.1,-2029.37 230.1,-2029.37"/>
<text text-anchor="start" x="241.1" y="-2049.57" font-family="Helvetica,sans-Serif" font-size="32.00" fill="#29235c">execution_time &#160;&#160;&#160;</text>
<text text-anchor="start" x="623.23" y="-2050.57" font-family="Helvetica,sans-Serif" font-style="italic" font-size="32.00" fill="#29235c">int</text>
<text text-anchor="start" x="657.01" y="-2050.57" font-family="Helvetica,sans-Serif" font-size="32.00" fill="#29235c"> </text>
<text text-anchor="start" x="665.91" y="-2050.57" font-family="Helvetica,sans-Serif" font-weight="bold" font-size="32.00" fill="#29235c">(!)</text>
<polygon fill="#e7e2dd" stroke="transparent" points="230.1,-1969.37 230.1,-2029.37 707.1,-2029.37 707.1,-1969.37 230.1,-1969.37"/>
<polygon fill="none" stroke="#29235c" points="230.1,-1969.37 230.1,-2029.37 707.1,-2029.37 707.1,-1969.37 230.1,-1969.37"/>
<text text-anchor="start" x="241.1" y="-1989.57" font-family="Helvetica,sans-Serif" font-size="32.00" fill="#29235c">success &#160;&#160;&#160;</text>
<text text-anchor="start" x="534.35" y="-1990.57" font-family="Helvetica,sans-Serif" font-style="italic" font-size="32.00" fill="#29235c">tinyint(1)</text>
<text text-anchor="start" x="657.01" y="-1990.57" font-family="Helvetica,sans-Serif" font-size="32.00" fill="#29235c"> </text>
<text text-anchor="start" x="665.91" y="-1990.57" font-family="Helvetica,sans-Serif" font-weight="bold" font-size="32.00" fill="#29235c">(!)</text>
<polygon fill="none" stroke="#29235c" stroke-width="2" points="228.6,-1968.37 228.6,-2630.37 707.6,-2630.37 707.6,-1968.37 228.6,-1968.37"/>
</g>
<!-- member -->
<g id="member" class="node">
<title>member</title>
<ellipse fill="none" stroke="black" stroke-width="0" cx="468.1" cy="-1469.37" rx="323.3" ry="342.48"/>
<polygon fill="#1d71b8" stroke="transparent" points="242.1,-1649.37 242.1,-1709.37 695.1,-1709.37 695.1,-1649.37 242.1,-1649.37"/>
<polygon fill="none" stroke="#29235c" points="242.1,-1649.37 242.1,-1709.37 695.1,-1709.37 695.1,-1649.37 242.1,-1649.37"/>
<text text-anchor="start" x="347.69" y="-1670.57" font-family="Helvetica,sans-Serif" font-weight="bold" font-size="32.00" fill="#ffffff"> &#160;&#160;&#160;&#160;&#160;&#160;member &#160;&#160;&#160;&#160;&#160;&#160;</text>
<polygon fill="#e7e2dd" stroke="transparent" points="242.1,-1589.37 242.1,-1649.37 695.1,-1649.37 695.1,-1589.37 242.1,-1589.37"/>
<polygon fill="none" stroke="#29235c" points="242.1,-1589.37 242.1,-1649.37 695.1,-1649.37 695.1,-1589.37 242.1,-1589.37"/>
<text text-anchor="start" x="253.1" y="-1610.57" font-family="Helvetica,sans-Serif" font-weight="bold" font-size="32.00" fill="#29235c">id</text>
<text text-anchor="start" x="277.99" y="-1610.57" font-family="Helvetica,sans-Serif" font-size="32.00" fill="#29235c"> &#160;&#160;&#160;</text>
<text text-anchor="start" x="568.55" y="-1610.57" font-family="Helvetica,sans-Serif" font-style="italic" font-size="32.00" fill="#29235c">bigint</text>
<text text-anchor="start" x="645.01" y="-1610.57" font-family="Helvetica,sans-Serif" font-size="32.00" fill="#29235c"> </text>
<text text-anchor="start" x="653.91" y="-1610.57" font-family="Helvetica,sans-Serif" font-weight="bold" font-size="32.00" fill="#29235c">(!)</text>
<polygon fill="#e7e2dd" stroke="transparent" points="242.1,-1529.37 242.1,-1589.37 695.1,-1589.37 695.1,-1529.37 242.1,-1529.37"/>
<polygon fill="none" stroke="#29235c" points="242.1,-1529.37 242.1,-1589.37 695.1,-1589.37 695.1,-1529.37 242.1,-1529.37"/>
<text text-anchor="start" x="253.1" y="-1549.57" font-family="Helvetica,sans-Serif" font-size="32.00" fill="#29235c">email &#160;&#160;&#160;</text>
<text text-anchor="start" x="463.67" y="-1550.57" font-family="Helvetica,sans-Serif" font-style="italic" font-size="32.00" fill="#29235c">varchar(255)</text>
<text text-anchor="start" x="645.01" y="-1550.57" font-family="Helvetica,sans-Serif" font-size="32.00" fill="#29235c"> </text>
<text text-anchor="start" x="653.91" y="-1550.57" font-family="Helvetica,sans-Serif" font-weight="bold" font-size="32.00" fill="#29235c">(!)</text>
<polygon fill="#e7e2dd" stroke="transparent" points="242.1,-1469.37 242.1,-1529.37 695.1,-1529.37 695.1,-1469.37 242.1,-1469.37"/>
<polygon fill="none" stroke="#29235c" points="242.1,-1469.37 242.1,-1529.37 695.1,-1529.37 695.1,-1469.37 242.1,-1469.37"/>
<text text-anchor="start" x="253.1" y="-1489.57" font-family="Helvetica,sans-Serif" font-size="32.00" fill="#29235c">social_id &#160;&#160;&#160;</text>
<text text-anchor="start" x="463.67" y="-1490.57" font-family="Helvetica,sans-Serif" font-style="italic" font-size="32.00" fill="#29235c">varchar(255)</text>
<text text-anchor="start" x="645.01" y="-1490.57" font-family="Helvetica,sans-Serif" font-size="32.00" fill="#29235c"> </text>
<text text-anchor="start" x="653.91" y="-1490.57" font-family="Helvetica,sans-Serif" font-weight="bold" font-size="32.00" fill="#29235c">(!)</text>
<polygon fill="#e7e2dd" stroke="transparent" points="242.1,-1409.37 242.1,-1469.37 695.1,-1469.37 695.1,-1409.37 242.1,-1409.37"/>
<polygon fill="none" stroke="#29235c" points="242.1,-1409.37 242.1,-1469.37 695.1,-1469.37 695.1,-1409.37 242.1,-1409.37"/>
<text text-anchor="start" x="253.1" y="-1429.57" font-family="Helvetica,sans-Serif" font-size="32.00" fill="#29235c">nickname &#160;&#160;&#160;</text>
<text text-anchor="start" x="502.76" y="-1430.57" font-family="Helvetica,sans-Serif" font-style="italic" font-size="32.00" fill="#29235c">varchar(255)</text>
<polygon fill="#e7e2dd" stroke="transparent" points="242.1,-1349.37 242.1,-1409.37 695.1,-1409.37 695.1,-1349.37 242.1,-1349.37"/>
<polygon fill="none" stroke="#29235c" points="242.1,-1349.37 242.1,-1409.37 695.1,-1409.37 695.1,-1349.37 242.1,-1349.37"/>
<text text-anchor="start" x="252.72" y="-1369.57" font-family="Helvetica,sans-Serif" font-size="32.00" fill="#29235c">phone_number &#160;&#160;&#160;</text>
<text text-anchor="start" x="502.93" y="-1370.57" font-family="Helvetica,sans-Serif" font-style="italic" font-size="32.00" fill="#29235c">varchar(255)</text>
<polygon fill="#e7e2dd" stroke="transparent" points="242.1,-1289.37 242.1,-1349.37 695.1,-1349.37 695.1,-1289.37 242.1,-1289.37"/>
<polygon fill="none" stroke="#29235c" points="242.1,-1289.37 242.1,-1349.37 695.1,-1349.37 695.1,-1289.37 242.1,-1289.37"/>
<text text-anchor="start" x="253.1" y="-1309.57" font-family="Helvetica,sans-Serif" font-size="32.00" fill="#29235c">opt_in_marketing &#160;&#160;&#160;</text>
<text text-anchor="start" x="561.45" y="-1310.57" font-family="Helvetica,sans-Serif" font-style="italic" font-size="32.00" fill="#29235c">tinyint(1)</text>
<polygon fill="#e7e2dd" stroke="transparent" points="242.1,-1229.37 242.1,-1289.37 695.1,-1289.37 695.1,-1229.37 242.1,-1229.37"/>
<polygon fill="none" stroke="#29235c" points="242.1,-1229.37 242.1,-1289.37 695.1,-1289.37 695.1,-1229.37 242.1,-1229.37"/>
<text text-anchor="start" x="253.1" y="-1249.57" font-family="Helvetica,sans-Serif" font-size="32.00" fill="#29235c">created_at &#160;&#160;&#160;</text>
<text text-anchor="start" x="497.46" y="-1250.57" font-family="Helvetica,sans-Serif" font-style="italic" font-size="32.00" fill="#29235c">timestamp</text>
<text text-anchor="start" x="645.01" y="-1250.57" font-family="Helvetica,sans-Serif" font-size="32.00" fill="#29235c"> </text>
<text text-anchor="start" x="653.91" y="-1250.57" font-family="Helvetica,sans-Serif" font-weight="bold" font-size="32.00" fill="#29235c">(!)</text>
<polygon fill="none" stroke="#29235c" stroke-width="2" points="240.6,-1228.37 240.6,-1710.37 695.6,-1710.37 695.6,-1228.37 240.6,-1228.37"/>
</g>
<!-- member&#45;&gt;cheer -->
<!-- member&#45;&gt;cheer -->
<g id="edge2" class="edge">
<title>member:e&#45;&gt;cheer:w</title>
<path fill="none" stroke="#29235c" stroke-width="3" d="M696.1,-1619.37C926.16,-1619.37 825.24,-1247.51 1045.6,-1236.62"/>
<polygon fill="#29235c" stroke="#29235c" stroke-width="3" points="1045.73,-1240.11 1055.64,-1236.37 1045.56,-1233.12 1045.73,-1240.11"/>
<text text-anchor="middle" x="1049.42" y="-1245.97" font-family="Helvetica,sans-Serif" font-size="32.00" fill="#29235c">*</text>
<text text-anchor="middle" x="687.21" y="-1628.97" font-family="Helvetica,sans-Serif" font-size="32.00" fill="#29235c">1</text>
</g>
<!-- store -->
<g id="store" class="node">
<title>store</title>
<ellipse fill="none" stroke="black" stroke-width="0" cx="468.1" cy="-554.37" rx="405.34" ry="554.24"/>
<polygon fill="#1d71b8" stroke="transparent" points="184.1,-884.37 184.1,-944.37 753.1,-944.37 753.1,-884.37 184.1,-884.37"/>
<polygon fill="none" stroke="#29235c" points="184.1,-884.37 184.1,-944.37 753.1,-944.37 753.1,-884.37 184.1,-884.37"/>
<text text-anchor="start" x="370.79" y="-905.57" font-family="Helvetica,sans-Serif" font-weight="bold" font-size="32.00" fill="#ffffff"> &#160;&#160;&#160;&#160;&#160;&#160;store &#160;&#160;&#160;&#160;&#160;&#160;</text>
<polygon fill="#e7e2dd" stroke="transparent" points="184.1,-824.37 184.1,-884.37 753.1,-884.37 753.1,-824.37 184.1,-824.37"/>
<polygon fill="none" stroke="#29235c" points="184.1,-824.37 184.1,-884.37 753.1,-884.37 753.1,-824.37 184.1,-824.37"/>
<text text-anchor="start" x="195.1" y="-845.57" font-family="Helvetica,sans-Serif" font-weight="bold" font-size="32.00" fill="#29235c">id</text>
<text text-anchor="start" x="219.99" y="-845.57" font-family="Helvetica,sans-Serif" font-size="32.00" fill="#29235c"> &#160;&#160;&#160;</text>
<text text-anchor="start" x="626.55" y="-845.57" font-family="Helvetica,sans-Serif" font-style="italic" font-size="32.00" fill="#29235c">bigint</text>
<text text-anchor="start" x="703.01" y="-845.57" font-family="Helvetica,sans-Serif" font-size="32.00" fill="#29235c"> </text>
<text text-anchor="start" x="711.91" y="-845.57" font-family="Helvetica,sans-Serif" font-weight="bold" font-size="32.00" fill="#29235c">(!)</text>
<polygon fill="#e7e2dd" stroke="transparent" points="184.1,-764.37 184.1,-824.37 753.1,-824.37 753.1,-764.37 184.1,-764.37"/>
<polygon fill="none" stroke="#29235c" points="184.1,-764.37 184.1,-824.37 753.1,-824.37 753.1,-764.37 184.1,-764.37"/>
<text text-anchor="start" x="195.1" y="-784.57" font-family="Helvetica,sans-Serif" font-size="32.00" fill="#29235c">kakao_id &#160;&#160;&#160;</text>
<text text-anchor="start" x="521.67" y="-785.57" font-family="Helvetica,sans-Serif" font-style="italic" font-size="32.00" fill="#29235c">varchar(255)</text>
<text text-anchor="start" x="703.01" y="-785.57" font-family="Helvetica,sans-Serif" font-size="32.00" fill="#29235c"> </text>
<text text-anchor="start" x="711.91" y="-785.57" font-family="Helvetica,sans-Serif" font-weight="bold" font-size="32.00" fill="#29235c">(!)</text>
<polygon fill="#e7e2dd" stroke="transparent" points="184.1,-704.37 184.1,-764.37 753.1,-764.37 753.1,-704.37 184.1,-704.37"/>
<polygon fill="none" stroke="#29235c" points="184.1,-704.37 184.1,-764.37 753.1,-764.37 753.1,-704.37 184.1,-704.37"/>
<text text-anchor="start" x="195.1" y="-724.57" font-family="Helvetica,sans-Serif" font-size="32.00" fill="#29235c">category &#160;&#160;&#160;</text>
<text text-anchor="start" x="539.46" y="-725.57" font-family="Helvetica,sans-Serif" font-style="italic" font-size="32.00" fill="#29235c">varchar(50)</text>
<text text-anchor="start" x="703.01" y="-725.57" font-family="Helvetica,sans-Serif" font-size="32.00" fill="#29235c"> </text>
<text text-anchor="start" x="711.91" y="-725.57" font-family="Helvetica,sans-Serif" font-weight="bold" font-size="32.00" fill="#29235c">(!)</text>
<polygon fill="#e7e2dd" stroke="transparent" points="184.1,-644.37 184.1,-704.37 753.1,-704.37 753.1,-644.37 184.1,-644.37"/>
<polygon fill="none" stroke="#29235c" points="184.1,-644.37 184.1,-704.37 753.1,-704.37 753.1,-644.37 184.1,-644.37"/>
<text text-anchor="start" x="195.1" y="-664.57" font-family="Helvetica,sans-Serif" font-size="32.00" fill="#29235c">phone_number &#160;&#160;&#160;</text>
<text text-anchor="start" x="521.67" y="-665.57" font-family="Helvetica,sans-Serif" font-style="italic" font-size="32.00" fill="#29235c">varchar(255)</text>
<text text-anchor="start" x="703.01" y="-665.57" font-family="Helvetica,sans-Serif" font-size="32.00" fill="#29235c"> </text>
<text text-anchor="start" x="711.91" y="-665.57" font-family="Helvetica,sans-Serif" font-weight="bold" font-size="32.00" fill="#29235c">(!)</text>
<polygon fill="#e7e2dd" stroke="transparent" points="184.1,-584.37 184.1,-644.37 753.1,-644.37 753.1,-584.37 184.1,-584.37"/>
<polygon fill="none" stroke="#29235c" points="184.1,-584.37 184.1,-644.37 753.1,-644.37 753.1,-584.37 184.1,-584.37"/>
<text text-anchor="start" x="195.1" y="-604.57" font-family="Helvetica,sans-Serif" font-size="32.00" fill="#29235c">name &#160;&#160;&#160;</text>
<text text-anchor="start" x="521.67" y="-605.57" font-family="Helvetica,sans-Serif" font-style="italic" font-size="32.00" fill="#29235c">varchar(255)</text>
<text text-anchor="start" x="703.01" y="-605.57" font-family="Helvetica,sans-Serif" font-size="32.00" fill="#29235c"> </text>
<text text-anchor="start" x="711.91" y="-605.57" font-family="Helvetica,sans-Serif" font-weight="bold" font-size="32.00" fill="#29235c">(!)</text>
<polygon fill="#e7e2dd" stroke="transparent" points="184.1,-524.37 184.1,-584.37 753.1,-584.37 753.1,-524.37 184.1,-524.37"/>
<polygon fill="none" stroke="#29235c" points="184.1,-524.37 184.1,-584.37 753.1,-584.37 753.1,-524.37 184.1,-524.37"/>
<text text-anchor="start" x="195.1" y="-544.57" font-family="Helvetica,sans-Serif" font-size="32.00" fill="#29235c">place_url &#160;&#160;&#160;</text>
<text text-anchor="start" x="521.67" y="-545.57" font-family="Helvetica,sans-Serif" font-style="italic" font-size="32.00" fill="#29235c">varchar(255)</text>
<text text-anchor="start" x="703.01" y="-545.57" font-family="Helvetica,sans-Serif" font-size="32.00" fill="#29235c"> </text>
<text text-anchor="start" x="711.91" y="-545.57" font-family="Helvetica,sans-Serif" font-weight="bold" font-size="32.00" fill="#29235c">(!)</text>
<polygon fill="#e7e2dd" stroke="transparent" points="184.1,-464.37 184.1,-524.37 753.1,-524.37 753.1,-464.37 184.1,-464.37"/>
<polygon fill="none" stroke="#29235c" points="184.1,-464.37 184.1,-524.37 753.1,-524.37 753.1,-464.37 184.1,-464.37"/>
<text text-anchor="start" x="195.1" y="-484.57" font-family="Helvetica,sans-Serif" font-size="32.00" fill="#29235c">road_address &#160;&#160;&#160;</text>
<text text-anchor="start" x="521.67" y="-485.57" font-family="Helvetica,sans-Serif" font-style="italic" font-size="32.00" fill="#29235c">varchar(255)</text>
<text text-anchor="start" x="703.01" y="-485.57" font-family="Helvetica,sans-Serif" font-size="32.00" fill="#29235c"> </text>
<text text-anchor="start" x="711.91" y="-485.57" font-family="Helvetica,sans-Serif" font-weight="bold" font-size="32.00" fill="#29235c">(!)</text>
<polygon fill="#e7e2dd" stroke="transparent" points="184.1,-404.37 184.1,-464.37 753.1,-464.37 753.1,-404.37 184.1,-404.37"/>
<polygon fill="none" stroke="#29235c" points="184.1,-404.37 184.1,-464.37 753.1,-464.37 753.1,-404.37 184.1,-404.37"/>
<text text-anchor="start" x="195" y="-424.57" font-family="Helvetica,sans-Serif" font-size="32.00" fill="#29235c">lot_number_address &#160;&#160;&#160;</text>
<text text-anchor="start" x="521.89" y="-425.57" font-family="Helvetica,sans-Serif" font-style="italic" font-size="32.00" fill="#29235c">varchar(255)</text>
<text text-anchor="start" x="703.23" y="-425.57" font-family="Helvetica,sans-Serif" font-size="32.00" fill="#29235c"> </text>
<text text-anchor="start" x="712.12" y="-425.57" font-family="Helvetica,sans-Serif" font-weight="bold" font-size="32.00" fill="#29235c">(!)</text>
<polygon fill="#e7e2dd" stroke="transparent" points="184.1,-344.37 184.1,-404.37 753.1,-404.37 753.1,-344.37 184.1,-344.37"/>
<polygon fill="none" stroke="#29235c" points="184.1,-344.37 184.1,-404.37 753.1,-404.37 753.1,-344.37 184.1,-344.37"/>
<text text-anchor="start" x="195.1" y="-364.57" font-family="Helvetica,sans-Serif" font-size="32.00" fill="#29235c">district &#160;&#160;&#160;</text>
<text text-anchor="start" x="539.46" y="-365.57" font-family="Helvetica,sans-Serif" font-style="italic" font-size="32.00" fill="#29235c">varchar(31)</text>
<text text-anchor="start" x="703.01" y="-365.57" font-family="Helvetica,sans-Serif" font-size="32.00" fill="#29235c"> </text>
<text text-anchor="start" x="711.91" y="-365.57" font-family="Helvetica,sans-Serif" font-weight="bold" font-size="32.00" fill="#29235c">(!)</text>
<polygon fill="#e7e2dd" stroke="transparent" points="184.1,-284.37 184.1,-344.37 753.1,-344.37 753.1,-284.37 184.1,-284.37"/>
<polygon fill="none" stroke="#29235c" points="184.1,-284.37 184.1,-344.37 753.1,-344.37 753.1,-284.37 184.1,-284.37"/>
<text text-anchor="start" x="195.1" y="-304.57" font-family="Helvetica,sans-Serif" font-size="32.00" fill="#29235c">latitude &#160;&#160;&#160;</text>
<text text-anchor="start" x="606.97" y="-305.57" font-family="Helvetica,sans-Serif" font-style="italic" font-size="32.00" fill="#29235c">double</text>
<text text-anchor="start" x="703.01" y="-305.57" font-family="Helvetica,sans-Serif" font-size="32.00" fill="#29235c"> </text>
<text text-anchor="start" x="711.91" y="-305.57" font-family="Helvetica,sans-Serif" font-weight="bold" font-size="32.00" fill="#29235c">(!)</text>
<polygon fill="#e7e2dd" stroke="transparent" points="184.1,-224.37 184.1,-284.37 753.1,-284.37 753.1,-224.37 184.1,-224.37"/>
<polygon fill="none" stroke="#29235c" points="184.1,-224.37 184.1,-284.37 753.1,-284.37 753.1,-224.37 184.1,-224.37"/>
<text text-anchor="start" x="195.1" y="-244.57" font-family="Helvetica,sans-Serif" font-size="32.00" fill="#29235c">longitude &#160;&#160;&#160;</text>
<text text-anchor="start" x="606.97" y="-245.57" font-family="Helvetica,sans-Serif" font-style="italic" font-size="32.00" fill="#29235c">double</text>
<text text-anchor="start" x="703.01" y="-245.57" font-family="Helvetica,sans-Serif" font-size="32.00" fill="#29235c"> </text>
<text text-anchor="start" x="711.91" y="-245.57" font-family="Helvetica,sans-Serif" font-weight="bold" font-size="32.00" fill="#29235c">(!)</text>
<polygon fill="#e7e2dd" stroke="transparent" points="184.1,-164.37 184.1,-224.37 753.1,-224.37 753.1,-164.37 184.1,-164.37"/>
<polygon fill="none" stroke="#29235c" points="184.1,-164.37 184.1,-224.37 753.1,-224.37 753.1,-164.37 184.1,-164.37"/>
<text text-anchor="start" x="195.1" y="-184.57" font-family="Helvetica,sans-Serif" font-size="32.00" fill="#29235c">created_at &#160;&#160;&#160;</text>
<text text-anchor="start" x="555.46" y="-185.57" font-family="Helvetica,sans-Serif" font-style="italic" font-size="32.00" fill="#29235c">timestamp</text>
<text text-anchor="start" x="703.01" y="-185.57" font-family="Helvetica,sans-Serif" font-size="32.00" fill="#29235c"> </text>
<text text-anchor="start" x="711.91" y="-185.57" font-family="Helvetica,sans-Serif" font-weight="bold" font-size="32.00" fill="#29235c">(!)</text>
<polygon fill="none" stroke="#29235c" stroke-width="2" points="182.6,-163.37 182.6,-945.37 753.6,-945.37 753.6,-163.37 182.6,-163.37"/>
</g>
<!-- store&#45;&gt;cheer -->
<!-- store&#45;&gt;cheer -->
<g id="edge4" class="edge">
<title>store:e&#45;&gt;cheer:w</title>
<path fill="none" stroke="#29235c" stroke-width="3" d="M754.1,-854.37C946.72,-854.37 862.67,-1165.15 1045.56,-1176.08"/>
<polygon fill="#29235c" stroke="#29235c" stroke-width="3" points="1045.54,-1179.58 1055.64,-1176.37 1045.74,-1172.58 1045.54,-1179.58"/>
<text text-anchor="middle" x="1049.42" y="-1185.97" font-family="Helvetica,sans-Serif" font-size="32.00" fill="#29235c">*</text>
<text text-anchor="middle" x="745.21" y="-863.97" font-family="Helvetica,sans-Serif" font-size="32.00" fill="#29235c">1</text>
</g>
<!-- story -->
<g id="story" class="node">
<title>story</title>
<ellipse fill="none" stroke="black" stroke-width="0" cx="468.1" cy="-3256.37" rx="468.21" ry="469.54"/>
<polygon fill="#1d71b8" stroke="transparent" points="139.1,-3526.37 139.1,-3586.37 797.1,-3586.37 797.1,-3526.37 139.1,-3526.37"/>
<polygon fill="none" stroke="#29235c" points="139.1,-3526.37 139.1,-3586.37 797.1,-3586.37 797.1,-3526.37 139.1,-3526.37"/>
<text text-anchor="start" x="371.19" y="-3547.57" font-family="Helvetica,sans-Serif" font-weight="bold" font-size="32.00" fill="#ffffff"> &#160;&#160;&#160;&#160;&#160;&#160;story &#160;&#160;&#160;&#160;&#160;&#160;</text>
<polygon fill="#e7e2dd" stroke="transparent" points="139.1,-3466.37 139.1,-3526.37 797.1,-3526.37 797.1,-3466.37 139.1,-3466.37"/>
<polygon fill="none" stroke="#29235c" points="139.1,-3466.37 139.1,-3526.37 797.1,-3526.37 797.1,-3466.37 139.1,-3466.37"/>
<text text-anchor="start" x="150.1" y="-3487.57" font-family="Helvetica,sans-Serif" font-weight="bold" font-size="32.00" fill="#29235c">id</text>
<text text-anchor="start" x="174.99" y="-3487.57" font-family="Helvetica,sans-Serif" font-size="32.00" fill="#29235c"> &#160;&#160;&#160;</text>
<text text-anchor="start" x="670.55" y="-3487.57" font-family="Helvetica,sans-Serif" font-style="italic" font-size="32.00" fill="#29235c">bigint</text>
<text text-anchor="start" x="747.01" y="-3487.57" font-family="Helvetica,sans-Serif" font-size="32.00" fill="#29235c"> </text>
<text text-anchor="start" x="755.91" y="-3487.57" font-family="Helvetica,sans-Serif" font-weight="bold" font-size="32.00" fill="#29235c">(!)</text>
<polygon fill="#e7e2dd" stroke="transparent" points="139.1,-3406.37 139.1,-3466.37 797.1,-3466.37 797.1,-3406.37 139.1,-3406.37"/>
<polygon fill="none" stroke="#29235c" points="139.1,-3406.37 139.1,-3466.37 797.1,-3466.37 797.1,-3406.37 139.1,-3406.37"/>
<text text-anchor="start" x="150.1" y="-3426.57" font-family="Helvetica,sans-Serif" font-size="32.00" fill="#29235c">member_id &#160;&#160;&#160;</text>
<text text-anchor="start" x="670.55" y="-3427.57" font-family="Helvetica,sans-Serif" font-style="italic" font-size="32.00" fill="#29235c">bigint</text>
<text text-anchor="start" x="747.01" y="-3427.57" font-family="Helvetica,sans-Serif" font-size="32.00" fill="#29235c"> </text>
<text text-anchor="start" x="755.91" y="-3427.57" font-family="Helvetica,sans-Serif" font-weight="bold" font-size="32.00" fill="#29235c">(!)</text>
<polygon fill="#e7e2dd" stroke="transparent" points="139.1,-3346.37 139.1,-3406.37 797.1,-3406.37 797.1,-3346.37 139.1,-3346.37"/>
<polygon fill="none" stroke="#29235c" points="139.1,-3346.37 139.1,-3406.37 797.1,-3406.37 797.1,-3346.37 139.1,-3346.37"/>
<text text-anchor="start" x="150.1" y="-3366.57" font-family="Helvetica,sans-Serif" font-size="32.00" fill="#29235c">store_kakao_id &#160;&#160;&#160;</text>
<text text-anchor="start" x="565.67" y="-3367.57" font-family="Helvetica,sans-Serif" font-style="italic" font-size="32.00" fill="#29235c">varchar(255)</text>
<text text-anchor="start" x="747.01" y="-3367.57" font-family="Helvetica,sans-Serif" font-size="32.00" fill="#29235c"> </text>
<text text-anchor="start" x="755.91" y="-3367.57" font-family="Helvetica,sans-Serif" font-weight="bold" font-size="32.00" fill="#29235c">(!)</text>
<polygon fill="#e7e2dd" stroke="transparent" points="139.1,-3286.37 139.1,-3346.37 797.1,-3346.37 797.1,-3286.37 139.1,-3286.37"/>
<polygon fill="none" stroke="#29235c" points="139.1,-3286.37 139.1,-3346.37 797.1,-3346.37 797.1,-3286.37 139.1,-3286.37"/>
<text text-anchor="start" x="150.1" y="-3306.57" font-family="Helvetica,sans-Serif" font-size="32.00" fill="#29235c">store_name &#160;&#160;&#160;</text>
<text text-anchor="start" x="565.67" y="-3307.57" font-family="Helvetica,sans-Serif" font-style="italic" font-size="32.00" fill="#29235c">varchar(255)</text>
<text text-anchor="start" x="747.01" y="-3307.57" font-family="Helvetica,sans-Serif" font-size="32.00" fill="#29235c"> </text>
<text text-anchor="start" x="755.91" y="-3307.57" font-family="Helvetica,sans-Serif" font-weight="bold" font-size="32.00" fill="#29235c">(!)</text>
<polygon fill="#e7e2dd" stroke="transparent" points="139.1,-3226.37 139.1,-3286.37 797.1,-3286.37 797.1,-3226.37 139.1,-3226.37"/>
<polygon fill="none" stroke="#29235c" points="139.1,-3226.37 139.1,-3286.37 797.1,-3286.37 797.1,-3226.37 139.1,-3226.37"/>
<text text-anchor="start" x="150.1" y="-3246.57" font-family="Helvetica,sans-Serif" font-size="32.00" fill="#29235c">store_road_address &#160;&#160;&#160;</text>
<text text-anchor="start" x="565.67" y="-3247.57" font-family="Helvetica,sans-Serif" font-style="italic" font-size="32.00" fill="#29235c">varchar(255)</text>
<text text-anchor="start" x="747.01" y="-3247.57" font-family="Helvetica,sans-Serif" font-size="32.00" fill="#29235c"> </text>
<text text-anchor="start" x="755.91" y="-3247.57" font-family="Helvetica,sans-Serif" font-weight="bold" font-size="32.00" fill="#29235c">(!)</text>
<polygon fill="#e7e2dd" stroke="transparent" points="139.1,-3166.37 139.1,-3226.37 797.1,-3226.37 797.1,-3166.37 139.1,-3166.37"/>
<polygon fill="none" stroke="#29235c" points="139.1,-3166.37 139.1,-3226.37 797.1,-3226.37 797.1,-3166.37 139.1,-3166.37"/>
<text text-anchor="start" x="150.05" y="-3186.57" font-family="Helvetica,sans-Serif" font-size="32.00" fill="#29235c">store_lot_number_address &#160;&#160;&#160;</text>
<text text-anchor="start" x="565.89" y="-3187.57" font-family="Helvetica,sans-Serif" font-style="italic" font-size="32.00" fill="#29235c">varchar(255)</text>
<text text-anchor="start" x="747.23" y="-3187.57" font-family="Helvetica,sans-Serif" font-size="32.00" fill="#29235c"> </text>
<text text-anchor="start" x="756.12" y="-3187.57" font-family="Helvetica,sans-Serif" font-weight="bold" font-size="32.00" fill="#29235c">(!)</text>
<polygon fill="#e7e2dd" stroke="transparent" points="139.1,-3106.37 139.1,-3166.37 797.1,-3166.37 797.1,-3106.37 139.1,-3106.37"/>
<polygon fill="none" stroke="#29235c" points="139.1,-3106.37 139.1,-3166.37 797.1,-3166.37 797.1,-3106.37 139.1,-3106.37"/>
<text text-anchor="start" x="150.1" y="-3126.57" font-family="Helvetica,sans-Serif" font-size="32.00" fill="#29235c">store_category &#160;&#160;&#160;</text>
<text text-anchor="start" x="583.46" y="-3127.57" font-family="Helvetica,sans-Serif" font-style="italic" font-size="32.00" fill="#29235c">varchar(50)</text>
<text text-anchor="start" x="747.01" y="-3127.57" font-family="Helvetica,sans-Serif" font-size="32.00" fill="#29235c"> </text>
<text text-anchor="start" x="755.91" y="-3127.57" font-family="Helvetica,sans-Serif" font-weight="bold" font-size="32.00" fill="#29235c">(!)</text>
<polygon fill="#e7e2dd" stroke="transparent" points="139.1,-3046.37 139.1,-3106.37 797.1,-3106.37 797.1,-3046.37 139.1,-3046.37"/>
<polygon fill="none" stroke="#29235c" points="139.1,-3046.37 139.1,-3106.37 797.1,-3106.37 797.1,-3046.37 139.1,-3046.37"/>
<text text-anchor="start" x="150.1" y="-3066.57" font-family="Helvetica,sans-Serif" font-size="32.00" fill="#29235c">description &#160;&#160;&#160;</text>
<text text-anchor="start" x="734.53" y="-3067.57" font-family="Helvetica,sans-Serif" font-style="italic" font-size="32.00" fill="#29235c">text</text>
<polygon fill="#e7e2dd" stroke="transparent" points="139.1,-2986.37 139.1,-3046.37 797.1,-3046.37 797.1,-2986.37 139.1,-2986.37"/>
<polygon fill="none" stroke="#29235c" points="139.1,-2986.37 139.1,-3046.37 797.1,-3046.37 797.1,-2986.37 139.1,-2986.37"/>
<text text-anchor="start" x="150.1" y="-3006.57" font-family="Helvetica,sans-Serif" font-size="32.00" fill="#29235c">image_key &#160;&#160;&#160;</text>
<text text-anchor="start" x="565.67" y="-3007.57" font-family="Helvetica,sans-Serif" font-style="italic" font-size="32.00" fill="#29235c">varchar(511)</text>
<text text-anchor="start" x="747.01" y="-3007.57" font-family="Helvetica,sans-Serif" font-size="32.00" fill="#29235c"> </text>
<text text-anchor="start" x="755.91" y="-3007.57" font-family="Helvetica,sans-Serif" font-weight="bold" font-size="32.00" fill="#29235c">(!)</text>
<polygon fill="#e7e2dd" stroke="transparent" points="139.1,-2926.37 139.1,-2986.37 797.1,-2986.37 797.1,-2926.37 139.1,-2926.37"/>
<polygon fill="none" stroke="#29235c" points="139.1,-2926.37 139.1,-2986.37 797.1,-2986.37 797.1,-2926.37 139.1,-2926.37"/>
<text text-anchor="start" x="150.1" y="-2946.57" font-family="Helvetica,sans-Serif" font-size="32.00" fill="#29235c">created_at &#160;&#160;&#160;</text>
<text text-anchor="start" x="599.46" y="-2947.57" font-family="Helvetica,sans-Serif" font-style="italic" font-size="32.00" fill="#29235c">timestamp</text>
<text text-anchor="start" x="747.01" y="-2947.57" font-family="Helvetica,sans-Serif" font-size="32.00" fill="#29235c"> </text>
<text text-anchor="start" x="755.91" y="-2947.57" font-family="Helvetica,sans-Serif" font-weight="bold" font-size="32.00" fill="#29235c">(!)</text>
<polygon fill="none" stroke="#29235c" stroke-width="2" points="138.1,-2925.37 138.1,-3587.37 798.1,-3587.37 798.1,-2925.37 138.1,-2925.37"/>
</g>
</g>
</svg>
